<svg width="721" height="291" viewBox="0 0 721 291" fill="none" xmlns="http://www.w3.org/2000/svg">
<g clip-path="url(#clip0_2616_87)" filter="url(#filter0_d_2616_87)">
<g filter="url(#filter1_d_2616_87)">
<path d="M130.24 44.0508V51.5935H60.4229V99.3628H127.394V106.906H60.4229V163.894H51.6328V44.0508H130.24Z" fill="white"/>
<path d="M155.354 103.636C155.354 139.337 172.181 157.188 205.834 157.188C238.873 157.188 255.392 139.337 255.392 103.636C255.392 68.381 238.873 50.7537 205.834 50.7537C172.181 50.7537 155.354 68.381 155.354 103.636ZM145.727 104.138C145.727 63.52 165.763 43.2109 205.834 43.2109C245.291 43.2109 265.02 63.52 265.02 104.138C265.02 144.533 245.291 164.731 205.834 164.731C165.763 164.731 145.727 144.533 145.727 104.138Z" fill="white"/>
<path d="M287.711 163.894V44.0508H337.102C358.756 44.0508 369.583 53.633 369.583 72.7964C369.583 89.39 357.835 101.152 334.34 108.079L374.774 163.894H362.718L322.954 108.331V102.38C347.51 98.7485 359.789 89.1113 359.789 73.4666C359.789 59.0523 351.752 51.8452 335.679 51.8452H296.501V163.894H287.711Z" fill="white"/>
<path d="M469.787 44.0508V51.5935H399.97V99.3628H466.942V106.906H399.97V156.352H470.96V163.894H391.18V44.0508H469.787Z" fill="white"/>
<path d="M494.817 159.702V150.483C507.375 154.953 521.215 157.188 536.34 157.188C561.398 157.188 573.928 147.69 573.928 128.694C573.928 114.726 565.779 107.742 549.483 107.742H524.871C502.603 107.742 491.469 97.685 491.469 77.5717C491.469 54.6648 507.792 43.2109 540.442 43.2109C553.836 43.2109 566.812 44.8869 579.368 48.2397V56.6204C566.812 52.7093 553.836 50.7537 540.442 50.7537C513.653 50.7537 500.259 59.6927 500.259 77.5717C500.259 92.0979 508.463 99.361 524.871 99.361H549.483C571.639 99.361 582.717 109.139 582.717 128.694C582.717 152.718 567.258 164.731 536.34 164.731C521.215 164.731 507.375 163.055 494.817 159.702Z" fill="white"/>
<path d="M682.758 44.0508V51.5935H641.739V163.894H632.949V51.5935H592.766V44.0508H682.758Z" fill="white"/>
<path d="M176.864 188.148L150.449 248.366H141.931L115.43 188.148H124.722L146.405 237.613L168.259 188.148H176.864Z" fill="white"/>
<path d="M201.75 188.148H210.354V248.366H201.75V188.148Z" fill="white"/>
<path d="M245.594 188.148H254.198V240.882H286.808V248.366H245.594V188.148Z" fill="white"/>
<path d="M313.891 188.148H322.494V240.882H355.104V248.366H313.891V188.148Z" fill="white"/>
<path d="M420.815 233.312H388.807L382.182 248.366H373.32L400.595 188.148H409.114L436.475 248.366H427.44L420.815 233.312ZM417.804 226.43L404.811 196.923L391.819 226.43H417.804Z" fill="white"/>
<path d="M503.557 217.913H511.817V241.398C508.834 243.864 505.364 245.757 501.406 247.076C497.448 248.395 493.318 249.055 489.016 249.055C482.936 249.055 477.458 247.736 472.581 245.098C467.706 242.402 463.863 238.731 461.052 234.087C458.299 229.384 456.922 224.107 456.922 218.257C456.922 212.408 458.299 207.131 461.052 202.429C463.863 197.726 467.706 194.056 472.581 191.418C477.515 188.78 483.05 187.461 489.188 187.461C494.006 187.461 498.366 188.263 502.266 189.87C506.224 191.418 509.58 193.712 512.333 196.751L506.998 202.085C502.18 197.439 496.358 195.117 489.532 195.117C484.943 195.117 480.813 196.12 477.143 198.128C473.528 200.078 470.689 202.831 468.624 206.387C466.559 209.885 465.526 213.842 465.526 218.257C465.526 222.616 466.559 226.574 468.624 230.129C470.689 233.627 473.528 236.38 477.143 238.387C480.813 240.395 484.915 241.398 489.446 241.398C494.838 241.398 499.542 240.108 503.557 237.527V217.913Z" fill="white"/>
<path d="M589.21 240.882V248.366H545.5V188.148H588.004V195.632H554.104V214.129H584.305V221.44H554.104V240.882H589.21Z" fill="white"/>
</g>
</g>
<defs>
<filter id="filter0_d_2616_87" x="-4.3" y="-0.3" width="729.6" height="299.6" filterUnits="userSpaceOnUse" color-interpolation-filters="sRGB">
<feFlood flood-opacity="0" result="BackgroundImageFix"/>
<feColorMatrix in="SourceAlpha" type="matrix" values="0 0 0 0 0 0 0 0 0 0 0 0 0 0 0 0 0 0 127 0" result="hardAlpha"/>
<feOffset dy="4"/>
<feGaussianBlur stdDeviation="2.15"/>
<feComposite in2="hardAlpha" operator="out"/>
<feColorMatrix type="matrix" values="0 0 0 0 0 0 0 0 0 0 0 0 0 0 0 0 0 0 1 0"/>
<feBlend mode="normal" in2="BackgroundImageFix" result="effect1_dropShadow_2616_87"/>
<feBlend mode="normal" in="SourceGraphic" in2="effect1_dropShadow_2616_87" result="shape"/>
</filter>
<filter id="filter1_d_2616_87" x="10.6328" y="6.21094" width="713.125" height="287.844" filterUnits="userSpaceOnUse" color-interpolation-filters="sRGB">
<feFlood flood-opacity="0" result="BackgroundImageFix"/>
<feColorMatrix in="SourceAlpha" type="matrix" values="0 0 0 0 0 0 0 0 0 0 0 0 0 0 0 0 0 0 127 0" result="hardAlpha"/>
<feOffset dy="4"/>
<feGaussianBlur stdDeviation="20.5"/>
<feComposite in2="hardAlpha" operator="out"/>
<feColorMatrix type="matrix" values="0 0 0 0 0 0 0 0 0 0 0 0 0 0 0 0 0 0 0.54 0"/>
<feBlend mode="normal" in2="BackgroundImageFix" result="effect1_dropShadow_2616_87"/>
<feBlend mode="normal" in="SourceGraphic" in2="effect1_dropShadow_2616_87" result="shape"/>
</filter>
<clipPath id="clip0_2616_87">
<rect width="721" height="291" fill="white"/>
</clipPath>
</defs>
</svg>
