<svg width="272" height="292" viewBox="0 0 272 292" fill="none" xmlns="http://www.w3.org/2000/svg">
<mask id="path-1-outside-1_2616_74" maskUnits="userSpaceOnUse" x="0" y="0" width="272" height="292" fill="black">
<rect fill="white" width="272" height="292"/>
<path d="M39.5414 204.519V207.67H10.2934V227.627H38.349V230.778H10.2934V254.587H6.61112V204.519H39.5414Z"/>
<path d="M50.0622 229.413C50.0622 244.328 57.1112 251.786 71.2091 251.786C85.0499 251.786 91.9703 244.328 91.9703 229.413C91.9703 214.684 85.0499 207.32 71.2091 207.32C57.1112 207.32 50.0622 214.684 50.0622 229.413ZM46.0292 229.623C46.0292 212.653 54.4225 204.169 71.2091 204.169C87.7385 204.169 96.0032 212.653 96.0032 229.623C96.0032 246.499 87.7385 254.937 71.2091 254.937C54.4225 254.937 46.0292 246.499 46.0292 229.623Z"/>
<path d="M105.507 254.587V204.519H126.198C135.269 204.519 139.805 208.522 139.805 216.528C139.805 223.461 134.884 228.374 125.041 231.268L141.979 254.587H136.929L120.271 231.373V228.888C130.558 227.37 135.702 223.344 135.702 216.808C135.702 210.786 132.335 207.775 125.602 207.775H109.189V254.587H105.507Z"/>
<path d="M181.783 204.519V207.67H152.535V227.627H180.591V230.778H152.535V251.435H182.274V254.587H148.853V204.519H181.783Z"/>
<path d="M192.269 252.836V248.985C197.529 250.852 203.328 251.786 209.663 251.786C220.161 251.786 225.41 247.818 225.41 239.881C225.41 234.046 221.996 231.128 215.169 231.128H204.859C195.53 231.128 190.866 226.927 190.866 218.524C190.866 208.954 197.705 204.169 211.382 204.169C216.993 204.169 222.429 204.869 227.689 206.27V209.771C222.429 208.137 216.993 207.32 211.382 207.32C200.16 207.32 194.549 211.055 194.549 218.524C194.549 224.593 197.985 227.627 204.859 227.627H215.169C224.451 227.627 229.092 231.712 229.092 239.881C229.092 249.918 222.616 254.937 209.663 254.937C203.328 254.937 197.529 254.236 192.269 252.836Z"/>
<path d="M271 204.519V207.67H253.816V254.587H250.134V207.67H233.3V204.519H271Z"/>
<path d="M151.193 26.5833C148.028 33.6521 138.815 37.7297 131.142 35.7623C123.089 33.7009 117.456 25.7616 118.013 17.2721C118.515 9.61483 125.216 1.81134 132.39 1C127.583 3.85536 124.361 7.53599 123.486 12.7906C122.615 18.0381 124.17 22.6032 127.705 26.5799C133.035 32.5691 143.357 34.4634 151.193 26.5799V26.5833Z"/>
<path d="M18.3849 161.702C18.866 161.145 19.3052 160.636 19.9188 159.923C23.6453 163.903 27.2708 167.775 31.1264 171.894C31.1264 168.959 31.088 162.069 31.088 162.069C31.088 162.069 22.0557 152.993 17.8132 148.341C22.5193 142.999 27.215 137.672 32.0432 132.194C37.0282 137.734 41.8355 143.076 46.7264 148.515L33.2145 162.001L33.2424 171.473C37.2723 167.569 41.1453 163.812 45.0949 159.985C45.4714 160.497 45.8444 160.999 46.2349 161.528C42.198 165.863 38.21 170.136 34.2429 174.429C33.8803 174.823 33.4202 175.345 33.4132 175.815C33.3505 180.394 33.3749 184.97 33.3749 189.702H58.0456C58.0456 189.037 58.0456 188.365 58.0456 187.696C58.0456 168.663 58.056 149.626 58.0177 130.592C58.0177 129.927 57.7214 129.116 57.2821 128.622C51.1084 121.685 44.8928 114.783 38.6527 107.906C37.973 107.158 37.9939 106.66 38.7329 106.054C39.1756 105.692 39.5696 105.267 40.0994 104.762C46.0013 111.284 51.8648 117.761 57.8573 124.38C57.9201 123.99 58.0073 123.701 58.0073 123.416C58.0212 119.063 58.07 114.71 57.9898 110.361C57.9759 109.595 57.5959 108.679 57.08 108.101C50.6656 100.921 44.1921 93.7896 37.6139 86.5119C44.8962 78.301 52.1507 70.1214 59.4574 61.8827C66.7746 70.2329 73.9175 78.3846 81.0918 86.5746C77.0306 91.1223 73.0565 95.5794 69.0719 100.023C66.7084 102.659 64.3065 105.26 61.9674 107.917C61.5804 108.355 61.2214 109.003 61.2144 109.557C61.1656 114.254 61.197 118.955 61.2144 123.656C61.2144 123.743 61.326 123.83 61.4445 124.008C67.5869 117.374 73.7084 110.765 79.8996 104.079C80.3005 104.518 80.6282 104.88 81.0291 105.319C85.3099 100.597 89.5106 95.9624 93.788 91.2441C99.662 97.8289 113.868 113.112 113.868 113.112C108.429 118.833 101.471 126.261 96.1132 132.062C95.789 132.414 95.4508 132.929 95.4438 133.375C95.3915 137.188 95.4125 140.997 95.4125 144.897C114.045 126.132 130.357 105.465 148.013 85.8259C151.813 90.3075 155.498 94.6532 159.493 99.3645C159.493 96.3594 159.489 93.8279 159.493 91.2999C159.507 85.3802 159.549 77.6847 159.517 71.765C159.517 71.765 169.038 71.765 173.228 71.765C173.228 72.5137 173.228 73.1063 173.228 73.9657C173.224 89.9546 173.088 101.619 173.032 114.907C173.032 114.907 185.704 130.484 191.251 137.045C191.582 137.435 191.857 137.87 192.234 138.389C191.327 139.134 190.498 139.813 189.49 140.638C188.054 138.984 186.66 137.383 185.011 135.481V189.712H201.033C201.033 189.075 201.033 188.41 201.033 187.745C201.088 159.021 201.158 100.134 201.158 100.134L186.064 84.4261L188.065 82.7373L201.033 96.4256C201.033 93.8627 200.969 85.6961 200.969 85.6961L185.589 69.2579C191.024 62.9935 196.476 56.7117 202.054 50.2836C207.698 56.7291 213.15 62.9552 218.724 69.3205L203.525 85.6961C203.525 85.6961 203.556 93.8244 203.556 95.6769C208.228 91.2615 212.676 87.0551 217.222 82.7581L219.43 85.0433L203.776 100.134V102.244C203.797 128.879 203.776 155.518 203.769 182.153C203.769 184.642 203.769 187.129 203.769 189.744H220.052C220.084 189.152 220.136 188.643 220.136 188.138C220.174 178.448 220.227 167.354 220.202 157.663C220.202 157.663 210.734 147.895 206.303 143.121C206.303 143.121 207.517 142.059 208.186 141.474C212.055 145.646 215.939 149.835 220.174 154.396C220.174 150.737 220.129 144.316 220.129 144.316C220.129 144.316 209.808 133.039 205.053 127.962C210.39 121.945 215.688 115.967 221.077 109.888C226.557 116.03 231.81 121.894 237.238 127.977L222.639 144.316C222.639 144.316 222.59 151.057 222.59 154.348C227.063 149.716 231.225 145.402 235.534 140.938C236.099 141.641 236.58 142.237 237.085 142.867C232.355 147.881 227.181 152.753 222.59 157.663C222.587 167.817 222.681 179.172 222.709 189.326C222.709 189.43 222.789 189.531 222.876 189.744H241.422C241.422 185.245 241.303 180.335 241.248 175.941L233.97 168.597L235.307 167.2C235.307 167.2 239.156 170.982 241.248 173.033L241.322 167.944C241.322 167.944 234.868 162.311 232.4 159.731C235.572 156.228 238.699 152.774 241.997 149.128C245.257 152.739 248.352 156.169 251.514 159.675L243.004 167.944V173.165L249.335 167.277L250.471 168.597L243.004 175.941V189.723H268.453V193.125H1V189.869H31.1612C31.1612 185.025 31.1821 180.398 31.1229 175.77C31.1194 175.362 30.6244 174.92 30.2932 174.558C26.3679 170.299 22.4252 166.055 18.3849 161.691V161.702ZM132.622 150.872H155.474V189.726H181.288C181.336 189.382 181.396 189.162 181.392 188.939C181.385 170.021 181.385 150.634 181.336 131.716C181.336 131.716 163.53 110.114 154.978 100.019C152.629 97.2474 150.286 94.4651 147.884 91.6202C146.354 93.4867 144.994 95.2103 143.562 96.8783C134.303 107.659 123.695 120.4 114.485 131.226C114.384 149.856 114.384 169.885 114.363 188.515C114.363 188.911 114.418 189.312 114.446 189.688H132.615V150.876L132.622 150.872ZM75.3573 113.714C70.8394 118.659 66.4016 123.471 62.0371 128.357C61.5282 128.924 61.2074 129.872 61.2074 130.645C61.1691 149.73 61.1865 168.816 61.1935 187.902C61.1935 188.514 61.1935 189.127 61.1935 189.74H92.3343C92.4214 189.524 92.4981 189.42 92.4981 189.319C92.5191 176.323 92.5435 163.332 92.5295 150.336C92.5295 149.884 92.2506 149.344 91.9369 148.996C88.5903 145.294 85.2158 141.62 81.8413 137.943C79.6939 135.603 77.543 133.267 75.3294 130.861C76.0231 130.199 76.5948 129.656 77.2746 129.005C82.3538 134.378 87.3423 139.649 92.5609 145.169C92.5609 140.99 92.5748 137.167 92.5434 133.347C92.5434 132.925 92.4145 132.396 92.1461 132.097C86.5719 125.958 80.9663 119.843 75.3608 113.714H75.3573ZM110.542 189.754V136.54C110.399 136.491 110.26 136.446 110.117 136.401C108.841 137.905 107.561 139.409 106.285 140.914C106.226 140.705 105.291 139.595 105.232 139.386C104.415 140.039 104.579 140.039 104.208 140.332C101.565 143.01 98.9926 145.761 96.5071 148.588C95.9284 149.243 95.4648 150.263 95.4578 151.116C95.3916 163.293 95.409 175.47 95.409 187.647C95.409 188.323 95.409 189.002 95.409 189.758H110.538L110.542 189.754ZM151.789 189.789V154.473H136.265V165.275H140.079V168.349H136.3V189.785H151.789V189.789ZM57.812 103.836V68.84C52.4296 74.8955 47.319 80.6445 42.0725 86.5467C47.2423 92.2226 52.4191 97.909 57.812 103.836ZM61.3608 69.1847V103.414C66.6213 97.6478 71.6551 92.1251 76.7482 86.5432C71.6725 80.8186 66.6038 75.1009 61.3608 69.1882V69.1847ZM78.5017 112.753C83.1381 117.757 87.7432 122.726 92.3831 127.737V97.4076C87.6804 102.606 83.1834 107.575 78.5017 112.753ZM109.437 113.116C104.807 107.986 100.241 102.934 95.4717 97.6478V127.657C100.164 122.772 104.797 117.945 109.437 113.112V113.116ZM163.282 75.5153C163.275 84.0431 163.097 93.901 163.125 102.429V103.484C165.025 105.859 167.406 108.759 169.529 111.287V75.5153H163.282ZM200.945 81.8598V55.8725C196.86 60.4898 192.969 64.8843 189.044 69.324C192.987 73.4782 196.835 77.5314 200.945 81.8598ZM220.056 115.01C216.068 119.491 212.324 123.701 208.555 127.936C212.387 131.978 216.085 135.885 220.056 140.074V115.01ZM215.189 69.223L203.731 56.6351V81.8598L215.189 69.223ZM222.674 139.695C226.491 135.655 230.096 131.846 233.756 127.977C230.064 123.872 226.411 119.808 222.674 115.654V139.695ZM31.0218 159.191V137.048C27.5462 140.962 24.2972 144.622 20.9646 148.372C24.3147 151.976 27.5811 155.49 31.0218 159.191ZM33.476 137.048L33.4132 159.191L43.8539 148.745L33.476 137.048ZM249.297 159.822C247.104 157.384 245.124 155.18 243.004 152.819V165.47C245.023 163.659 247.16 161.74 249.297 159.822ZM241.261 165.588V153.035C239.1 155.438 237.141 157.61 235.004 159.985C237.183 161.935 239.285 163.819 241.261 165.588Z"/>
<path d="M56.9165 264.665L45.4834 290.702H41.7965L30.3262 264.665H34.3482L43.7331 286.053L53.1924 264.665H56.9165Z"/>
<path d="M67.6892 264.665H71.4133V290.702H67.6892V264.665Z"/>
<path d="M86.6663 264.665H90.3904V287.466H104.505V290.702H86.6663V264.665Z"/>
<path d="M116.227 264.665H119.951V287.466H134.065V290.702H116.227V264.665Z"/>
<path d="M162.506 284.193H148.652L145.784 290.702H141.948L153.754 264.665H157.441L169.284 290.702H165.373L162.506 284.193ZM161.202 281.217L155.579 268.459L149.955 281.217H161.202Z"/>
<path d="M198.319 277.535H201.894V287.69C200.603 288.756 199.101 289.574 197.388 290.145C195.675 290.715 193.887 291 192.025 291C189.394 291 187.023 290.43 184.912 289.289C182.802 288.123 181.138 286.536 179.922 284.528C178.73 282.494 178.134 280.213 178.134 277.684C178.134 275.154 178.73 272.873 179.922 270.84C181.138 268.806 182.802 267.219 184.912 266.078C187.047 264.938 189.443 264.367 192.1 264.367C194.185 264.367 196.072 264.715 197.76 265.409C199.474 266.078 200.926 267.07 202.118 268.385L199.809 270.691C197.723 268.682 195.203 267.678 192.249 267.678C190.263 267.678 188.475 268.112 186.886 268.98C185.322 269.823 184.093 271.013 183.199 272.551C182.305 274.063 181.858 275.774 181.858 277.684C181.858 279.568 182.305 281.279 183.199 282.817C184.093 284.329 185.322 285.52 186.886 286.388C188.475 287.256 190.25 287.69 192.212 287.69C194.545 287.69 196.581 287.132 198.319 286.016V277.535Z"/>
<path d="M235.391 287.466V290.702H216.473V264.665H234.87V267.901H220.197V275.898H233.269V279.06H220.197V287.466H235.391Z"/>
</mask>
<path d="M39.5414 204.519V207.67H10.2934V227.627H38.349V230.778H10.2934V254.587H6.61112V204.519H39.5414Z" fill="#1F2F15"/>
<path d="M50.0622 229.413C50.0622 244.328 57.1112 251.786 71.2091 251.786C85.0499 251.786 91.9703 244.328 91.9703 229.413C91.9703 214.684 85.0499 207.32 71.2091 207.32C57.1112 207.32 50.0622 214.684 50.0622 229.413ZM46.0292 229.623C46.0292 212.653 54.4225 204.169 71.2091 204.169C87.7385 204.169 96.0032 212.653 96.0032 229.623C96.0032 246.499 87.7385 254.937 71.2091 254.937C54.4225 254.937 46.0292 246.499 46.0292 229.623Z" fill="#1F2F15"/>
<path d="M105.507 254.587V204.519H126.198C135.269 204.519 139.805 208.522 139.805 216.528C139.805 223.461 134.884 228.374 125.041 231.268L141.979 254.587H136.929L120.271 231.373V228.888C130.558 227.37 135.702 223.344 135.702 216.808C135.702 210.786 132.335 207.775 125.602 207.775H109.189V254.587H105.507Z" fill="#1F2F15"/>
<path d="M181.783 204.519V207.67H152.535V227.627H180.591V230.778H152.535V251.435H182.274V254.587H148.853V204.519H181.783Z" fill="#1F2F15"/>
<path d="M192.269 252.836V248.985C197.529 250.852 203.328 251.786 209.663 251.786C220.161 251.786 225.41 247.818 225.41 239.881C225.41 234.046 221.996 231.128 215.169 231.128H204.859C195.53 231.128 190.866 226.927 190.866 218.524C190.866 208.954 197.705 204.169 211.382 204.169C216.993 204.169 222.429 204.869 227.689 206.27V209.771C222.429 208.137 216.993 207.32 211.382 207.32C200.16 207.32 194.549 211.055 194.549 218.524C194.549 224.593 197.985 227.627 204.859 227.627H215.169C224.451 227.627 229.092 231.712 229.092 239.881C229.092 249.918 222.616 254.937 209.663 254.937C203.328 254.937 197.529 254.236 192.269 252.836Z" fill="#1F2F15"/>
<path d="M271 204.519V207.67H253.816V254.587H250.134V207.67H233.3V204.519H271Z" fill="#1F2F15"/>
<path d="M151.193 26.5833C148.028 33.6521 138.815 37.7297 131.142 35.7623C123.089 33.7009 117.456 25.7616 118.013 17.2721C118.515 9.61483 125.216 1.81134 132.39 1C127.583 3.85536 124.361 7.53599 123.486 12.7906C122.615 18.0381 124.17 22.6032 127.705 26.5799C133.035 32.5691 143.357 34.4634 151.193 26.5799V26.5833Z" fill="#1F2F15"/>
<path d="M18.3849 161.702C18.866 161.145 19.3052 160.636 19.9188 159.923C23.6453 163.903 27.2708 167.775 31.1264 171.894C31.1264 168.959 31.088 162.069 31.088 162.069C31.088 162.069 22.0557 152.993 17.8132 148.341C22.5193 142.999 27.215 137.672 32.0432 132.194C37.0282 137.734 41.8355 143.076 46.7264 148.515L33.2145 162.001L33.2424 171.473C37.2723 167.569 41.1453 163.812 45.0949 159.985C45.4714 160.497 45.8444 160.999 46.2349 161.528C42.198 165.863 38.21 170.136 34.2429 174.429C33.8803 174.823 33.4202 175.345 33.4132 175.815C33.3505 180.394 33.3749 184.97 33.3749 189.702H58.0456C58.0456 189.037 58.0456 188.365 58.0456 187.696C58.0456 168.663 58.056 149.626 58.0177 130.592C58.0177 129.927 57.7214 129.116 57.2821 128.622C51.1084 121.685 44.8928 114.783 38.6527 107.906C37.973 107.158 37.9939 106.66 38.7329 106.054C39.1756 105.692 39.5696 105.267 40.0994 104.762C46.0013 111.284 51.8648 117.761 57.8573 124.38C57.9201 123.99 58.0073 123.701 58.0073 123.416C58.0212 119.063 58.07 114.71 57.9898 110.361C57.9759 109.595 57.5959 108.679 57.08 108.101C50.6656 100.921 44.1921 93.7896 37.6139 86.5119C44.8962 78.301 52.1507 70.1214 59.4574 61.8827C66.7746 70.2329 73.9175 78.3846 81.0918 86.5746C77.0306 91.1223 73.0565 95.5794 69.0719 100.023C66.7084 102.659 64.3065 105.26 61.9674 107.917C61.5804 108.355 61.2214 109.003 61.2144 109.557C61.1656 114.254 61.197 118.955 61.2144 123.656C61.2144 123.743 61.326 123.83 61.4445 124.008C67.5869 117.374 73.7084 110.765 79.8996 104.079C80.3005 104.518 80.6282 104.88 81.0291 105.319C85.3099 100.597 89.5106 95.9624 93.788 91.2441C99.662 97.8289 113.868 113.112 113.868 113.112C108.429 118.833 101.471 126.261 96.1132 132.062C95.789 132.414 95.4508 132.929 95.4438 133.375C95.3915 137.188 95.4125 140.997 95.4125 144.897C114.045 126.132 130.357 105.465 148.013 85.8259C151.813 90.3075 155.498 94.6532 159.493 99.3645C159.493 96.3594 159.489 93.8279 159.493 91.2999C159.507 85.3802 159.549 77.6847 159.517 71.765C159.517 71.765 169.038 71.765 173.228 71.765C173.228 72.5137 173.228 73.1063 173.228 73.9657C173.224 89.9546 173.088 101.619 173.032 114.907C173.032 114.907 185.704 130.484 191.251 137.045C191.582 137.435 191.857 137.87 192.234 138.389C191.327 139.134 190.498 139.813 189.49 140.638C188.054 138.984 186.66 137.383 185.011 135.481V189.712H201.033C201.033 189.075 201.033 188.41 201.033 187.745C201.088 159.021 201.158 100.134 201.158 100.134L186.064 84.4261L188.065 82.7373L201.033 96.4256C201.033 93.8627 200.969 85.6961 200.969 85.6961L185.589 69.2579C191.024 62.9935 196.476 56.7117 202.054 50.2836C207.698 56.7291 213.15 62.9552 218.724 69.3205L203.525 85.6961C203.525 85.6961 203.556 93.8244 203.556 95.6769C208.228 91.2615 212.676 87.0551 217.222 82.7581L219.43 85.0433L203.776 100.134V102.244C203.797 128.879 203.776 155.518 203.769 182.153C203.769 184.642 203.769 187.129 203.769 189.744H220.052C220.084 189.152 220.136 188.643 220.136 188.138C220.174 178.448 220.227 167.354 220.202 157.663C220.202 157.663 210.734 147.895 206.303 143.121C206.303 143.121 207.517 142.059 208.186 141.474C212.055 145.646 215.939 149.835 220.174 154.396C220.174 150.737 220.129 144.316 220.129 144.316C220.129 144.316 209.808 133.039 205.053 127.962C210.39 121.945 215.688 115.967 221.077 109.888C226.557 116.03 231.81 121.894 237.238 127.977L222.639 144.316C222.639 144.316 222.59 151.057 222.59 154.348C227.063 149.716 231.225 145.402 235.534 140.938C236.099 141.641 236.58 142.237 237.085 142.867C232.355 147.881 227.181 152.753 222.59 157.663C222.587 167.817 222.681 179.172 222.709 189.326C222.709 189.43 222.789 189.531 222.876 189.744H241.422C241.422 185.245 241.303 180.335 241.248 175.941L233.97 168.597L235.307 167.2C235.307 167.2 239.156 170.982 241.248 173.033L241.322 167.944C241.322 167.944 234.868 162.311 232.4 159.731C235.572 156.228 238.699 152.774 241.997 149.128C245.257 152.739 248.352 156.169 251.514 159.675L243.004 167.944V173.165L249.335 167.277L250.471 168.597L243.004 175.941V189.723H268.453V193.125H1V189.869H31.1612C31.1612 185.025 31.1821 180.398 31.1229 175.77C31.1194 175.362 30.6244 174.92 30.2932 174.558C26.3679 170.299 22.4252 166.055 18.3849 161.691V161.702ZM132.622 150.872H155.474V189.726H181.288C181.336 189.382 181.396 189.162 181.392 188.939C181.385 170.021 181.385 150.634 181.336 131.716C181.336 131.716 163.53 110.114 154.978 100.019C152.629 97.2474 150.286 94.4651 147.884 91.6202C146.354 93.4867 144.994 95.2103 143.562 96.8783C134.303 107.659 123.695 120.4 114.485 131.226C114.384 149.856 114.384 169.885 114.363 188.515C114.363 188.911 114.418 189.312 114.446 189.688H132.615V150.876L132.622 150.872ZM75.3573 113.714C70.8394 118.659 66.4016 123.471 62.0371 128.357C61.5282 128.924 61.2074 129.872 61.2074 130.645C61.1691 149.73 61.1865 168.816 61.1935 187.902C61.1935 188.514 61.1935 189.127 61.1935 189.74H92.3343C92.4214 189.524 92.4981 189.42 92.4981 189.319C92.5191 176.323 92.5435 163.332 92.5295 150.336C92.5295 149.884 92.2506 149.344 91.9369 148.996C88.5903 145.294 85.2158 141.62 81.8413 137.943C79.6939 135.603 77.543 133.267 75.3294 130.861C76.0231 130.199 76.5948 129.656 77.2746 129.005C82.3538 134.378 87.3423 139.649 92.5609 145.169C92.5609 140.99 92.5748 137.167 92.5434 133.347C92.5434 132.925 92.4145 132.396 92.1461 132.097C86.5719 125.958 80.9663 119.843 75.3608 113.714H75.3573ZM110.542 189.754V136.54C110.399 136.491 110.26 136.446 110.117 136.401C108.841 137.905 107.561 139.409 106.285 140.914C106.226 140.705 105.291 139.595 105.232 139.386C104.415 140.039 104.579 140.039 104.208 140.332C101.565 143.01 98.9926 145.761 96.5071 148.588C95.9284 149.243 95.4648 150.263 95.4578 151.116C95.3916 163.293 95.409 175.47 95.409 187.647C95.409 188.323 95.409 189.002 95.409 189.758H110.538L110.542 189.754ZM151.789 189.789V154.473H136.265V165.275H140.079V168.349H136.3V189.785H151.789V189.789ZM57.812 103.836V68.84C52.4296 74.8955 47.319 80.6445 42.0725 86.5467C47.2423 92.2226 52.4191 97.909 57.812 103.836ZM61.3608 69.1847V103.414C66.6213 97.6478 71.6551 92.1251 76.7482 86.5432C71.6725 80.8186 66.6038 75.1009 61.3608 69.1882V69.1847ZM78.5017 112.753C83.1381 117.757 87.7432 122.726 92.3831 127.737V97.4076C87.6804 102.606 83.1834 107.575 78.5017 112.753ZM109.437 113.116C104.807 107.986 100.241 102.934 95.4717 97.6478V127.657C100.164 122.772 104.797 117.945 109.437 113.112V113.116ZM163.282 75.5153C163.275 84.0431 163.097 93.901 163.125 102.429V103.484C165.025 105.859 167.406 108.759 169.529 111.287V75.5153H163.282ZM200.945 81.8598V55.8725C196.86 60.4898 192.969 64.8843 189.044 69.324C192.987 73.4782 196.835 77.5314 200.945 81.8598ZM220.056 115.01C216.068 119.491 212.324 123.701 208.555 127.936C212.387 131.978 216.085 135.885 220.056 140.074V115.01ZM215.189 69.223L203.731 56.6351V81.8598L215.189 69.223ZM222.674 139.695C226.491 135.655 230.096 131.846 233.756 127.977C230.064 123.872 226.411 119.808 222.674 115.654V139.695ZM31.0218 159.191V137.048C27.5462 140.962 24.2972 144.622 20.9646 148.372C24.3147 151.976 27.5811 155.49 31.0218 159.191ZM33.476 137.048L33.4132 159.191L43.8539 148.745L33.476 137.048ZM249.297 159.822C247.104 157.384 245.124 155.18 243.004 152.819V165.47C245.023 163.659 247.16 161.74 249.297 159.822ZM241.261 165.588V153.035C239.1 155.438 237.141 157.61 235.004 159.985C237.183 161.935 239.285 163.819 241.261 165.588Z" fill="#1F2F15"/>
<path d="M56.9165 264.665L45.4834 290.702H41.7965L30.3262 264.665H34.3482L43.7331 286.053L53.1924 264.665H56.9165Z" fill="#1F2F15"/>
<path d="M67.6892 264.665H71.4133V290.702H67.6892V264.665Z" fill="#1F2F15"/>
<path d="M86.6663 264.665H90.3904V287.466H104.505V290.702H86.6663V264.665Z" fill="#1F2F15"/>
<path d="M116.227 264.665H119.951V287.466H134.065V290.702H116.227V264.665Z" fill="#1F2F15"/>
<path d="M162.506 284.193H148.652L145.784 290.702H141.948L153.754 264.665H157.441L169.284 290.702H165.373L162.506 284.193ZM161.202 281.217L155.579 268.459L149.955 281.217H161.202Z" fill="#1F2F15"/>
<path d="M198.319 277.535H201.894V287.69C200.603 288.756 199.101 289.574 197.388 290.145C195.675 290.715 193.887 291 192.025 291C189.394 291 187.023 290.43 184.912 289.289C182.802 288.123 181.138 286.536 179.922 284.528C178.73 282.494 178.134 280.213 178.134 277.684C178.134 275.154 178.73 272.873 179.922 270.84C181.138 268.806 182.802 267.219 184.912 266.078C187.047 264.938 189.443 264.367 192.1 264.367C194.185 264.367 196.072 264.715 197.76 265.409C199.474 266.078 200.926 267.07 202.118 268.385L199.809 270.691C197.723 268.682 195.203 267.678 192.249 267.678C190.263 267.678 188.475 268.112 186.886 268.98C185.322 269.823 184.093 271.013 183.199 272.551C182.305 274.063 181.858 275.774 181.858 277.684C181.858 279.568 182.305 281.279 183.199 282.817C184.093 284.329 185.322 285.52 186.886 286.388C188.475 287.256 190.25 287.69 192.212 287.69C194.545 287.69 196.581 287.132 198.319 286.016V277.535Z" fill="#1F2F15"/>
<path d="M235.391 287.466V290.702H216.473V264.665H234.87V267.901H220.197V275.898H233.269V279.06H220.197V287.466H235.391Z" fill="#1F2F15"/>
<path d="M39.5414 204.519V207.67H10.2934V227.627H38.349V230.778H10.2934V254.587H6.61112V204.519H39.5414Z" stroke="#1F2F15" stroke-width="1.4" mask="url(#path-1-outside-1_2616_74)"/>
<path d="M50.0622 229.413C50.0622 244.328 57.1112 251.786 71.2091 251.786C85.0499 251.786 91.9703 244.328 91.9703 229.413C91.9703 214.684 85.0499 207.32 71.2091 207.32C57.1112 207.32 50.0622 214.684 50.0622 229.413ZM46.0292 229.623C46.0292 212.653 54.4225 204.169 71.2091 204.169C87.7385 204.169 96.0032 212.653 96.0032 229.623C96.0032 246.499 87.7385 254.937 71.2091 254.937C54.4225 254.937 46.0292 246.499 46.0292 229.623Z" stroke="#1F2F15" stroke-width="1.4" mask="url(#path-1-outside-1_2616_74)"/>
<path d="M105.507 254.587V204.519H126.198C135.269 204.519 139.805 208.522 139.805 216.528C139.805 223.461 134.884 228.374 125.041 231.268L141.979 254.587H136.929L120.271 231.373V228.888C130.558 227.37 135.702 223.344 135.702 216.808C135.702 210.786 132.335 207.775 125.602 207.775H109.189V254.587H105.507Z" stroke="#1F2F15" stroke-width="1.4" mask="url(#path-1-outside-1_2616_74)"/>
<path d="M181.783 204.519V207.67H152.535V227.627H180.591V230.778H152.535V251.435H182.274V254.587H148.853V204.519H181.783Z" stroke="#1F2F15" stroke-width="1.4" mask="url(#path-1-outside-1_2616_74)"/>
<path d="M192.269 252.836V248.985C197.529 250.852 203.328 251.786 209.663 251.786C220.161 251.786 225.41 247.818 225.41 239.881C225.41 234.046 221.996 231.128 215.169 231.128H204.859C195.53 231.128 190.866 226.927 190.866 218.524C190.866 208.954 197.705 204.169 211.382 204.169C216.993 204.169 222.429 204.869 227.689 206.27V209.771C222.429 208.137 216.993 207.32 211.382 207.32C200.16 207.32 194.549 211.055 194.549 218.524C194.549 224.593 197.985 227.627 204.859 227.627H215.169C224.451 227.627 229.092 231.712 229.092 239.881C229.092 249.918 222.616 254.937 209.663 254.937C203.328 254.937 197.529 254.236 192.269 252.836Z" stroke="#1F2F15" stroke-width="1.4" mask="url(#path-1-outside-1_2616_74)"/>
<path d="M271 204.519V207.67H253.816V254.587H250.134V207.67H233.3V204.519H271Z" stroke="#1F2F15" stroke-width="1.4" mask="url(#path-1-outside-1_2616_74)"/>
<path d="M151.193 26.5833C148.028 33.6521 138.815 37.7297 131.142 35.7623C123.089 33.7009 117.456 25.7616 118.013 17.2721C118.515 9.61483 125.216 1.81134 132.39 1C127.583 3.85536 124.361 7.53599 123.486 12.7906C122.615 18.0381 124.17 22.6032 127.705 26.5799C133.035 32.5691 143.357 34.4634 151.193 26.5799V26.5833Z" stroke="#1F2F15" stroke-width="1.4" mask="url(#path-1-outside-1_2616_74)"/>
<path d="M18.3849 161.702C18.866 161.145 19.3052 160.636 19.9188 159.923C23.6453 163.903 27.2708 167.775 31.1264 171.894C31.1264 168.959 31.088 162.069 31.088 162.069C31.088 162.069 22.0557 152.993 17.8132 148.341C22.5193 142.999 27.215 137.672 32.0432 132.194C37.0282 137.734 41.8355 143.076 46.7264 148.515L33.2145 162.001L33.2424 171.473C37.2723 167.569 41.1453 163.812 45.0949 159.985C45.4714 160.497 45.8444 160.999 46.2349 161.528C42.198 165.863 38.21 170.136 34.2429 174.429C33.8803 174.823 33.4202 175.345 33.4132 175.815C33.3505 180.394 33.3749 184.97 33.3749 189.702H58.0456C58.0456 189.037 58.0456 188.365 58.0456 187.696C58.0456 168.663 58.056 149.626 58.0177 130.592C58.0177 129.927 57.7214 129.116 57.2821 128.622C51.1084 121.685 44.8928 114.783 38.6527 107.906C37.973 107.158 37.9939 106.66 38.7329 106.054C39.1756 105.692 39.5696 105.267 40.0994 104.762C46.0013 111.284 51.8648 117.761 57.8573 124.38C57.9201 123.99 58.0073 123.701 58.0073 123.416C58.0212 119.063 58.07 114.71 57.9898 110.361C57.9759 109.595 57.5959 108.679 57.08 108.101C50.6656 100.921 44.1921 93.7896 37.6139 86.5119C44.8962 78.301 52.1507 70.1214 59.4574 61.8827C66.7746 70.2329 73.9175 78.3846 81.0918 86.5746C77.0306 91.1223 73.0565 95.5794 69.0719 100.023C66.7084 102.659 64.3065 105.26 61.9674 107.917C61.5804 108.355 61.2214 109.003 61.2144 109.557C61.1656 114.254 61.197 118.955 61.2144 123.656C61.2144 123.743 61.326 123.83 61.4445 124.008C67.5869 117.374 73.7084 110.765 79.8996 104.079C80.3005 104.518 80.6282 104.88 81.0291 105.319C85.3099 100.597 89.5106 95.9624 93.788 91.2441C99.662 97.8289 113.868 113.112 113.868 113.112C108.429 118.833 101.471 126.261 96.1132 132.062C95.789 132.414 95.4508 132.929 95.4438 133.375C95.3915 137.188 95.4125 140.997 95.4125 144.897C114.045 126.132 130.357 105.465 148.013 85.8259C151.813 90.3075 155.498 94.6532 159.493 99.3645C159.493 96.3594 159.489 93.8279 159.493 91.2999C159.507 85.3802 159.549 77.6847 159.517 71.765C159.517 71.765 169.038 71.765 173.228 71.765C173.228 72.5137 173.228 73.1063 173.228 73.9657C173.224 89.9546 173.088 101.619 173.032 114.907C173.032 114.907 185.704 130.484 191.251 137.045C191.582 137.435 191.857 137.87 192.234 138.389C191.327 139.134 190.498 139.813 189.49 140.638C188.054 138.984 186.66 137.383 185.011 135.481V189.712H201.033C201.033 189.075 201.033 188.41 201.033 187.745C201.088 159.021 201.158 100.134 201.158 100.134L186.064 84.4261L188.065 82.7373L201.033 96.4256C201.033 93.8627 200.969 85.6961 200.969 85.6961L185.589 69.2579C191.024 62.9935 196.476 56.7117 202.054 50.2836C207.698 56.7291 213.15 62.9552 218.724 69.3205L203.525 85.6961C203.525 85.6961 203.556 93.8244 203.556 95.6769C208.228 91.2615 212.676 87.0551 217.222 82.7581L219.43 85.0433L203.776 100.134V102.244C203.797 128.879 203.776 155.518 203.769 182.153C203.769 184.642 203.769 187.129 203.769 189.744H220.052C220.084 189.152 220.136 188.643 220.136 188.138C220.174 178.448 220.227 167.354 220.202 157.663C220.202 157.663 210.734 147.895 206.303 143.121C206.303 143.121 207.517 142.059 208.186 141.474C212.055 145.646 215.939 149.835 220.174 154.396C220.174 150.737 220.129 144.316 220.129 144.316C220.129 144.316 209.808 133.039 205.053 127.962C210.39 121.945 215.688 115.967 221.077 109.888C226.557 116.03 231.81 121.894 237.238 127.977L222.639 144.316C222.639 144.316 222.59 151.057 222.59 154.348C227.063 149.716 231.225 145.402 235.534 140.938C236.099 141.641 236.58 142.237 237.085 142.867C232.355 147.881 227.181 152.753 222.59 157.663C222.587 167.817 222.681 179.172 222.709 189.326C222.709 189.43 222.789 189.531 222.876 189.744H241.422C241.422 185.245 241.303 180.335 241.248 175.941L233.97 168.597L235.307 167.2C235.307 167.2 239.156 170.982 241.248 173.033L241.322 167.944C241.322 167.944 234.868 162.311 232.4 159.731C235.572 156.228 238.699 152.774 241.997 149.128C245.257 152.739 248.352 156.169 251.514 159.675L243.004 167.944V173.165L249.335 167.277L250.471 168.597L243.004 175.941V189.723H268.453V193.125H1V189.869H31.1612C31.1612 185.025 31.1821 180.398 31.1229 175.77C31.1194 175.362 30.6244 174.92 30.2932 174.558C26.3679 170.299 22.4252 166.055 18.3849 161.691V161.702ZM132.622 150.872H155.474V189.726H181.288C181.336 189.382 181.396 189.162 181.392 188.939C181.385 170.021 181.385 150.634 181.336 131.716C181.336 131.716 163.53 110.114 154.978 100.019C152.629 97.2474 150.286 94.4651 147.884 91.6202C146.354 93.4867 144.994 95.2103 143.562 96.8783C134.303 107.659 123.695 120.4 114.485 131.226C114.384 149.856 114.384 169.885 114.363 188.515C114.363 188.911 114.418 189.312 114.446 189.688H132.615V150.876L132.622 150.872ZM75.3573 113.714C70.8394 118.659 66.4016 123.471 62.0371 128.357C61.5282 128.924 61.2074 129.872 61.2074 130.645C61.1691 149.73 61.1865 168.816 61.1935 187.902C61.1935 188.514 61.1935 189.127 61.1935 189.74H92.3343C92.4214 189.524 92.4981 189.42 92.4981 189.319C92.5191 176.323 92.5435 163.332 92.5295 150.336C92.5295 149.884 92.2506 149.344 91.9369 148.996C88.5903 145.294 85.2158 141.62 81.8413 137.943C79.6939 135.603 77.543 133.267 75.3294 130.861C76.0231 130.199 76.5948 129.656 77.2746 129.005C82.3538 134.378 87.3423 139.649 92.5609 145.169C92.5609 140.99 92.5748 137.167 92.5434 133.347C92.5434 132.925 92.4145 132.396 92.1461 132.097C86.5719 125.958 80.9663 119.843 75.3608 113.714H75.3573ZM110.542 189.754V136.54C110.399 136.491 110.26 136.446 110.117 136.401C108.841 137.905 107.561 139.409 106.285 140.914C106.226 140.705 105.291 139.595 105.232 139.386C104.415 140.039 104.579 140.039 104.208 140.332C101.565 143.01 98.9926 145.761 96.5071 148.588C95.9284 149.243 95.4648 150.263 95.4578 151.116C95.3916 163.293 95.409 175.47 95.409 187.647C95.409 188.323 95.409 189.002 95.409 189.758H110.538L110.542 189.754ZM151.789 189.789V154.473H136.265V165.275H140.079V168.349H136.3V189.785H151.789V189.789ZM57.812 103.836V68.84C52.4296 74.8955 47.319 80.6445 42.0725 86.5467C47.2423 92.2226 52.4191 97.909 57.812 103.836ZM61.3608 69.1847V103.414C66.6213 97.6478 71.6551 92.1251 76.7482 86.5432C71.6725 80.8186 66.6038 75.1009 61.3608 69.1882V69.1847ZM78.5017 112.753C83.1381 117.757 87.7432 122.726 92.3831 127.737V97.4076C87.6804 102.606 83.1834 107.575 78.5017 112.753ZM109.437 113.116C104.807 107.986 100.241 102.934 95.4717 97.6478V127.657C100.164 122.772 104.797 117.945 109.437 113.112V113.116ZM163.282 75.5153C163.275 84.0431 163.097 93.901 163.125 102.429V103.484C165.025 105.859 167.406 108.759 169.529 111.287V75.5153H163.282ZM200.945 81.8598V55.8725C196.86 60.4898 192.969 64.8843 189.044 69.324C192.987 73.4782 196.835 77.5314 200.945 81.8598ZM220.056 115.01C216.068 119.491 212.324 123.701 208.555 127.936C212.387 131.978 216.085 135.885 220.056 140.074V115.01ZM215.189 69.223L203.731 56.6351V81.8598L215.189 69.223ZM222.674 139.695C226.491 135.655 230.096 131.846 233.756 127.977C230.064 123.872 226.411 119.808 222.674 115.654V139.695ZM31.0218 159.191V137.048C27.5462 140.962 24.2972 144.622 20.9646 148.372C24.3147 151.976 27.5811 155.49 31.0218 159.191ZM33.476 137.048L33.4132 159.191L43.8539 148.745L33.476 137.048ZM249.297 159.822C247.104 157.384 245.124 155.18 243.004 152.819V165.47C245.023 163.659 247.16 161.74 249.297 159.822ZM241.261 165.588V153.035C239.1 155.438 237.141 157.61 235.004 159.985C237.183 161.935 239.285 163.819 241.261 165.588Z" stroke="#1F2F15" stroke-width="1.4" mask="url(#path-1-outside-1_2616_74)"/>
<path d="M56.9165 264.665L45.4834 290.702H41.7965L30.3262 264.665H34.3482L43.7331 286.053L53.1924 264.665H56.9165Z" stroke="#1F2F15" stroke-width="1.4" mask="url(#path-1-outside-1_2616_74)"/>
<path d="M67.6892 264.665H71.4133V290.702H67.6892V264.665Z" stroke="#1F2F15" stroke-width="1.4" mask="url(#path-1-outside-1_2616_74)"/>
<path d="M86.6663 264.665H90.3904V287.466H104.505V290.702H86.6663V264.665Z" stroke="#1F2F15" stroke-width="1.4" mask="url(#path-1-outside-1_2616_74)"/>
<path d="M116.227 264.665H119.951V287.466H134.065V290.702H116.227V264.665Z" stroke="#1F2F15" stroke-width="1.4" mask="url(#path-1-outside-1_2616_74)"/>
<path d="M162.506 284.193H148.652L145.784 290.702H141.948L153.754 264.665H157.441L169.284 290.702H165.373L162.506 284.193ZM161.202 281.217L155.579 268.459L149.955 281.217H161.202Z" stroke="#1F2F15" stroke-width="1.4" mask="url(#path-1-outside-1_2616_74)"/>
<path d="M198.319 277.535H201.894V287.69C200.603 288.756 199.101 289.574 197.388 290.145C195.675 290.715 193.887 291 192.025 291C189.394 291 187.023 290.43 184.912 289.289C182.802 288.123 181.138 286.536 179.922 284.528C178.73 282.494 178.134 280.213 178.134 277.684C178.134 275.154 178.73 272.873 179.922 270.84C181.138 268.806 182.802 267.219 184.912 266.078C187.047 264.938 189.443 264.367 192.1 264.367C194.185 264.367 196.072 264.715 197.76 265.409C199.474 266.078 200.926 267.07 202.118 268.385L199.809 270.691C197.723 268.682 195.203 267.678 192.249 267.678C190.263 267.678 188.475 268.112 186.886 268.98C185.322 269.823 184.093 271.013 183.199 272.551C182.305 274.063 181.858 275.774 181.858 277.684C181.858 279.568 182.305 281.279 183.199 282.817C184.093 284.329 185.322 285.52 186.886 286.388C188.475 287.256 190.25 287.69 192.212 287.69C194.545 287.69 196.581 287.132 198.319 286.016V277.535Z" stroke="#1F2F15" stroke-width="1.4" mask="url(#path-1-outside-1_2616_74)"/>
<path d="M235.391 287.466V290.702H216.473V264.665H234.87V267.901H220.197V275.898H233.269V279.06H220.197V287.466H235.391Z" stroke="#1F2F15" stroke-width="1.4" mask="url(#path-1-outside-1_2616_74)"/>
</svg>
