<svg width="70" height="25" viewBox="0 0 70 25" fill="none" xmlns="http://www.w3.org/2000/svg">
<mask id="path-1-outside-1_2588_487" maskUnits="userSpaceOnUse" x="0" y="0" width="70" height="25" fill="black">
<rect fill="white" width="70" height="25"/>
<path d="M9.46956 1.09274V1.92742H1.94708V7.21368H9.16289V8.04835H1.94708V14.3548H1V1.09274H9.46956Z"/>
<path d="M12.1755 7.68666C12.1755 11.6374 13.9885 13.6128 17.6144 13.6128C21.1742 13.6128 22.9541 11.6374 22.9541 7.68666C22.9541 3.78534 21.1742 1.83467 17.6144 1.83467C13.9885 1.83467 12.1755 3.78534 12.1755 7.68666ZM11.1382 7.7423C11.1382 3.24744 13.2969 1 17.6144 1C21.8657 1 23.9914 3.24744 23.9914 7.7423C23.9914 12.2124 21.8657 14.4475 17.6144 14.4475C13.2969 14.4475 11.1382 12.2124 11.1382 7.7423Z"/>
<path d="M26.4357 14.3548V1.09274H31.7574C34.0905 1.09274 35.2571 2.15308 35.2571 4.27377C35.2571 6.11005 33.9913 7.41152 31.4597 8.17819L35.8163 14.3548H34.5174L30.2331 8.206V7.54755C32.8789 7.14567 34.2018 6.07914 34.2018 4.34797C34.2018 2.75282 33.3359 1.95524 31.6041 1.95524H27.3828V14.3548H26.4357Z"/>
<path d="M46.0537 1.09274V1.92742H38.5312V7.21368H45.7471V8.04835H38.5312V13.5201H46.18V14.3548H37.5842V1.09274H46.0537Z"/>
<path d="M48.7506 13.891V12.8709C50.1036 13.3655 51.5949 13.6128 53.2244 13.6128C55.9244 13.6128 57.2743 12.5618 57.2743 10.4596C57.2743 8.91394 56.3964 8.14109 54.6405 8.14109H51.9887C49.5895 8.14109 48.3898 7.02819 48.3898 4.8024C48.3898 2.26747 50.1487 1 53.6664 1C55.1096 1 56.5076 1.18549 57.8606 1.55645V2.48387C56.5076 2.05107 55.1096 1.83467 53.6664 1.83467C50.7801 1.83467 49.3369 2.82392 49.3369 4.8024C49.3369 6.40992 50.2209 7.21368 51.9887 7.21368H54.6405C57.0278 7.21368 58.2214 8.29566 58.2214 10.4596C58.2214 13.1182 56.5557 14.4475 53.2244 14.4475C51.5949 14.4475 50.1036 14.262 48.7506 13.891Z"/>
<path d="M69 1.09274V1.92742H64.5803V14.3548H63.6332V1.92742H59.3038V1.09274H69Z"/>
<path d="M13.9384 17.0243L10.9978 23.9212H10.0496L7.09943 17.0243H8.1339L10.5476 22.6896L12.9806 17.0243H13.9384Z"/>
<path d="M16.7091 17.0243H17.6669V23.9212H16.7091V17.0243Z"/>
<path d="M21.5899 17.0243H22.5478V23.064H26.178V23.9212H21.5899V17.0243Z"/>
<path d="M29.1928 17.0243H30.1506V23.064H33.7808V23.9212H29.1928V17.0243Z"/>
<path d="M41.0956 22.197H37.5325L36.7949 23.9212H35.8083L38.8447 17.0243H39.7929L42.8389 23.9212H41.8331L41.0956 22.197ZM40.7604 21.4088L39.314 18.0293L37.8677 21.4088H40.7604Z"/>
<path d="M50.3067 20.4334H51.2262V23.1231C50.8942 23.4056 50.5078 23.6223 50.0672 23.7734C49.6266 23.9245 49.1669 24 48.688 24C48.0111 24 47.4013 23.8489 46.8585 23.5468C46.3157 23.2381 45.8879 22.8177 45.575 22.2857C45.2685 21.747 45.1152 21.1427 45.1152 20.4728C45.1152 19.8028 45.2685 19.1985 45.575 18.6599C45.8879 18.1213 46.3157 17.7009 46.8585 17.3987C47.4076 17.0966 48.0239 16.9455 48.7071 16.9455C49.2435 16.9455 49.7288 17.0375 50.163 17.2214C50.6036 17.3987 50.9772 17.6615 51.2837 18.0096L50.6898 18.6205C50.1535 18.0884 49.5053 17.8224 48.7454 17.8224C48.2346 17.8224 47.7748 17.9374 47.3661 18.1672C46.9639 18.3906 46.6478 18.7059 46.4179 19.1131C46.188 19.5138 46.0731 19.967 46.0731 20.4728C46.0731 20.972 46.188 21.4252 46.4179 21.8324C46.6478 22.2331 46.9639 22.5484 47.3661 22.7783C47.7748 23.0082 48.2314 23.1231 48.7359 23.1231C49.3361 23.1231 49.8597 22.9753 50.3067 22.6798V20.4334Z"/>
<path d="M59.8416 23.064V23.9212H54.9758V17.0243H59.7075V17.8815H55.9336V19.9998H59.2956V20.8373H55.9336V23.064H59.8416Z"/>
</mask>
<path d="M9.46956 1.09274V1.92742H1.94708V7.21368H9.16289V8.04835H1.94708V14.3548H1V1.09274H9.46956Z" fill="#1F2F15"/>
<path d="M12.1755 7.68666C12.1755 11.6374 13.9885 13.6128 17.6144 13.6128C21.1742 13.6128 22.9541 11.6374 22.9541 7.68666C22.9541 3.78534 21.1742 1.83467 17.6144 1.83467C13.9885 1.83467 12.1755 3.78534 12.1755 7.68666ZM11.1382 7.7423C11.1382 3.24744 13.2969 1 17.6144 1C21.8657 1 23.9914 3.24744 23.9914 7.7423C23.9914 12.2124 21.8657 14.4475 17.6144 14.4475C13.2969 14.4475 11.1382 12.2124 11.1382 7.7423Z" fill="#1F2F15"/>
<path d="M26.4357 14.3548V1.09274H31.7574C34.0905 1.09274 35.2571 2.15308 35.2571 4.27377C35.2571 6.11005 33.9913 7.41152 31.4597 8.17819L35.8163 14.3548H34.5174L30.2331 8.206V7.54755C32.8789 7.14567 34.2018 6.07914 34.2018 4.34797C34.2018 2.75282 33.3359 1.95524 31.6041 1.95524H27.3828V14.3548H26.4357Z" fill="#1F2F15"/>
<path d="M46.0537 1.09274V1.92742H38.5312V7.21368H45.7471V8.04835H38.5312V13.5201H46.18V14.3548H37.5842V1.09274H46.0537Z" fill="#1F2F15"/>
<path d="M48.7506 13.891V12.8709C50.1036 13.3655 51.5949 13.6128 53.2244 13.6128C55.9244 13.6128 57.2743 12.5618 57.2743 10.4596C57.2743 8.91394 56.3964 8.14109 54.6405 8.14109H51.9887C49.5895 8.14109 48.3898 7.02819 48.3898 4.8024C48.3898 2.26747 50.1487 1 53.6664 1C55.1096 1 56.5076 1.18549 57.8606 1.55645V2.48387C56.5076 2.05107 55.1096 1.83467 53.6664 1.83467C50.7801 1.83467 49.3369 2.82392 49.3369 4.8024C49.3369 6.40992 50.2209 7.21368 51.9887 7.21368H54.6405C57.0278 7.21368 58.2214 8.29566 58.2214 10.4596C58.2214 13.1182 56.5557 14.4475 53.2244 14.4475C51.5949 14.4475 50.1036 14.262 48.7506 13.891Z" fill="#1F2F15"/>
<path d="M69 1.09274V1.92742H64.5803V14.3548H63.6332V1.92742H59.3038V1.09274H69Z" fill="#1F2F15"/>
<path d="M13.9384 17.0243L10.9978 23.9212H10.0496L7.09943 17.0243H8.1339L10.5476 22.6896L12.9806 17.0243H13.9384Z" fill="#1F2F15"/>
<path d="M16.7091 17.0243H17.6669V23.9212H16.7091V17.0243Z" fill="#1F2F15"/>
<path d="M21.5899 17.0243H22.5478V23.064H26.178V23.9212H21.5899V17.0243Z" fill="#1F2F15"/>
<path d="M29.1928 17.0243H30.1506V23.064H33.7808V23.9212H29.1928V17.0243Z" fill="#1F2F15"/>
<path d="M41.0956 22.197H37.5325L36.7949 23.9212H35.8083L38.8447 17.0243H39.7929L42.8389 23.9212H41.8331L41.0956 22.197ZM40.7604 21.4088L39.314 18.0293L37.8677 21.4088H40.7604Z" fill="#1F2F15"/>
<path d="M50.3067 20.4334H51.2262V23.1231C50.8942 23.4056 50.5078 23.6223 50.0672 23.7734C49.6266 23.9245 49.1669 24 48.688 24C48.0111 24 47.4013 23.8489 46.8585 23.5468C46.3157 23.2381 45.8879 22.8177 45.575 22.2857C45.2685 21.747 45.1152 21.1427 45.1152 20.4728C45.1152 19.8028 45.2685 19.1985 45.575 18.6599C45.8879 18.1213 46.3157 17.7009 46.8585 17.3987C47.4076 17.0966 48.0239 16.9455 48.7071 16.9455C49.2435 16.9455 49.7288 17.0375 50.163 17.2214C50.6036 17.3987 50.9772 17.6615 51.2837 18.0096L50.6898 18.6205C50.1535 18.0884 49.5053 17.8224 48.7454 17.8224C48.2346 17.8224 47.7748 17.9374 47.3661 18.1672C46.9639 18.3906 46.6478 18.7059 46.4179 19.1131C46.188 19.5138 46.0731 19.967 46.0731 20.4728C46.0731 20.972 46.188 21.4252 46.4179 21.8324C46.6478 22.2331 46.9639 22.5484 47.3661 22.7783C47.7748 23.0082 48.2314 23.1231 48.7359 23.1231C49.3361 23.1231 49.8597 22.9753 50.3067 22.6798V20.4334Z" fill="#1F2F15"/>
<path d="M59.8416 23.064V23.9212H54.9758V17.0243H59.7075V17.8815H55.9336V19.9998H59.2956V20.8373H55.9336V23.064H59.8416Z" fill="#1F2F15"/>
<path d="M9.46956 1.09274V1.92742H1.94708V7.21368H9.16289V8.04835H1.94708V14.3548H1V1.09274H9.46956Z" stroke="#1F2F15" stroke-width="0.8" mask="url(#path-1-outside-1_2588_487)"/>
<path d="M12.1755 7.68666C12.1755 11.6374 13.9885 13.6128 17.6144 13.6128C21.1742 13.6128 22.9541 11.6374 22.9541 7.68666C22.9541 3.78534 21.1742 1.83467 17.6144 1.83467C13.9885 1.83467 12.1755 3.78534 12.1755 7.68666ZM11.1382 7.7423C11.1382 3.24744 13.2969 1 17.6144 1C21.8657 1 23.9914 3.24744 23.9914 7.7423C23.9914 12.2124 21.8657 14.4475 17.6144 14.4475C13.2969 14.4475 11.1382 12.2124 11.1382 7.7423Z" stroke="#1F2F15" stroke-width="0.8" mask="url(#path-1-outside-1_2588_487)"/>
<path d="M26.4357 14.3548V1.09274H31.7574C34.0905 1.09274 35.2571 2.15308 35.2571 4.27377C35.2571 6.11005 33.9913 7.41152 31.4597 8.17819L35.8163 14.3548H34.5174L30.2331 8.206V7.54755C32.8789 7.14567 34.2018 6.07914 34.2018 4.34797C34.2018 2.75282 33.3359 1.95524 31.6041 1.95524H27.3828V14.3548H26.4357Z" stroke="#1F2F15" stroke-width="0.8" mask="url(#path-1-outside-1_2588_487)"/>
<path d="M46.0537 1.09274V1.92742H38.5312V7.21368H45.7471V8.04835H38.5312V13.5201H46.18V14.3548H37.5842V1.09274H46.0537Z" stroke="#1F2F15" stroke-width="0.8" mask="url(#path-1-outside-1_2588_487)"/>
<path d="M48.7506 13.891V12.8709C50.1036 13.3655 51.5949 13.6128 53.2244 13.6128C55.9244 13.6128 57.2743 12.5618 57.2743 10.4596C57.2743 8.91394 56.3964 8.14109 54.6405 8.14109H51.9887C49.5895 8.14109 48.3898 7.02819 48.3898 4.8024C48.3898 2.26747 50.1487 1 53.6664 1C55.1096 1 56.5076 1.18549 57.8606 1.55645V2.48387C56.5076 2.05107 55.1096 1.83467 53.6664 1.83467C50.7801 1.83467 49.3369 2.82392 49.3369 4.8024C49.3369 6.40992 50.2209 7.21368 51.9887 7.21368H54.6405C57.0278 7.21368 58.2214 8.29566 58.2214 10.4596C58.2214 13.1182 56.5557 14.4475 53.2244 14.4475C51.5949 14.4475 50.1036 14.262 48.7506 13.891Z" stroke="#1F2F15" stroke-width="0.8" mask="url(#path-1-outside-1_2588_487)"/>
<path d="M69 1.09274V1.92742H64.5803V14.3548H63.6332V1.92742H59.3038V1.09274H69Z" stroke="#1F2F15" stroke-width="0.8" mask="url(#path-1-outside-1_2588_487)"/>
<path d="M13.9384 17.0243L10.9978 23.9212H10.0496L7.09943 17.0243H8.1339L10.5476 22.6896L12.9806 17.0243H13.9384Z" stroke="#1F2F15" stroke-width="0.8" mask="url(#path-1-outside-1_2588_487)"/>
<path d="M16.7091 17.0243H17.6669V23.9212H16.7091V17.0243Z" stroke="#1F2F15" stroke-width="0.8" mask="url(#path-1-outside-1_2588_487)"/>
<path d="M21.5899 17.0243H22.5478V23.064H26.178V23.9212H21.5899V17.0243Z" stroke="#1F2F15" stroke-width="0.8" mask="url(#path-1-outside-1_2588_487)"/>
<path d="M29.1928 17.0243H30.1506V23.064H33.7808V23.9212H29.1928V17.0243Z" stroke="#1F2F15" stroke-width="0.8" mask="url(#path-1-outside-1_2588_487)"/>
<path d="M41.0956 22.197H37.5325L36.7949 23.9212H35.8083L38.8447 17.0243H39.7929L42.8389 23.9212H41.8331L41.0956 22.197ZM40.7604 21.4088L39.314 18.0293L37.8677 21.4088H40.7604Z" stroke="#1F2F15" stroke-width="0.8" mask="url(#path-1-outside-1_2588_487)"/>
<path d="M50.3067 20.4334H51.2262V23.1231C50.8942 23.4056 50.5078 23.6223 50.0672 23.7734C49.6266 23.9245 49.1669 24 48.688 24C48.0111 24 47.4013 23.8489 46.8585 23.5468C46.3157 23.2381 45.8879 22.8177 45.575 22.2857C45.2685 21.747 45.1152 21.1427 45.1152 20.4728C45.1152 19.8028 45.2685 19.1985 45.575 18.6599C45.8879 18.1213 46.3157 17.7009 46.8585 17.3987C47.4076 17.0966 48.0239 16.9455 48.7071 16.9455C49.2435 16.9455 49.7288 17.0375 50.163 17.2214C50.6036 17.3987 50.9772 17.6615 51.2837 18.0096L50.6898 18.6205C50.1535 18.0884 49.5053 17.8224 48.7454 17.8224C48.2346 17.8224 47.7748 17.9374 47.3661 18.1672C46.9639 18.3906 46.6478 18.7059 46.4179 19.1131C46.188 19.5138 46.0731 19.967 46.0731 20.4728C46.0731 20.972 46.188 21.4252 46.4179 21.8324C46.6478 22.2331 46.9639 22.5484 47.3661 22.7783C47.7748 23.0082 48.2314 23.1231 48.7359 23.1231C49.3361 23.1231 49.8597 22.9753 50.3067 22.6798V20.4334Z" stroke="#1F2F15" stroke-width="0.8" mask="url(#path-1-outside-1_2588_487)"/>
<path d="M59.8416 23.064V23.9212H54.9758V17.0243H59.7075V17.8815H55.9336V19.9998H59.2956V20.8373H55.9336V23.064H59.8416Z" stroke="#1F2F15" stroke-width="0.8" mask="url(#path-1-outside-1_2588_487)"/>
</svg>
