<svg width="219" height="53" viewBox="0 0 219 53" fill="none" xmlns="http://www.w3.org/2000/svg">
<g filter="url(#filter0_dd_3724_4002)">
<rect x="10" y="10" width="198.969" height="29" rx="14.5" fill="#E1CB03"/>
</g>
<g filter="url(#filter1_i_3724_4002)">
<path d="M26.106 31.272C24.8253 31.272 23.675 31.0057 22.655 30.473C21.635 29.9403 20.836 29.2037 20.258 28.263C19.68 27.311 19.391 26.24 19.391 25.05C19.391 23.86 19.68 22.7947 20.258 21.854C20.836 20.902 21.635 20.1597 22.655 19.627C23.675 19.0943 24.8253 18.828 26.106 18.828C27.3867 18.828 28.537 19.0943 29.557 19.627C30.577 20.1597 31.376 20.902 31.954 21.854C32.532 22.7947 32.821 23.86 32.821 25.05C32.821 26.24 32.532 27.311 31.954 28.263C31.376 29.2037 30.577 29.9403 29.557 30.473C28.537 31.0057 27.3867 31.272 26.106 31.272ZM26.106 28.025C26.6047 28.025 27.0523 27.906 27.449 27.668C27.857 27.4187 28.18 27.073 28.418 26.631C28.656 26.1777 28.775 25.6507 28.775 25.05C28.775 24.4493 28.656 23.928 28.418 23.486C28.18 23.0327 27.857 22.687 27.449 22.449C27.0523 22.1997 26.6047 22.075 26.106 22.075C25.6073 22.075 25.154 22.1997 24.746 22.449C24.3493 22.687 24.032 23.0327 23.794 23.486C23.556 23.928 23.437 24.4493 23.437 25.05C23.437 25.6507 23.556 26.1777 23.794 26.631C24.032 27.073 24.3493 27.4187 24.746 27.668C25.154 27.906 25.6073 28.025 26.106 28.025ZM40.2489 31.272C38.9909 31.272 37.8576 31.0113 36.8489 30.49C35.8403 29.9573 35.0469 29.2207 34.4689 28.28C33.9023 27.328 33.6189 26.2513 33.6189 25.05C33.6189 23.8487 33.9023 22.7777 34.4689 21.837C35.0469 20.885 35.8403 20.1483 36.8489 19.627C37.8576 19.0943 38.9909 18.828 40.2489 18.828C41.4049 18.828 42.4363 19.032 43.3429 19.44C44.2496 19.848 44.9976 20.4373 45.5869 21.208L43.0539 23.469C42.3173 22.5397 41.4503 22.075 40.4529 22.075C39.6143 22.075 38.9399 22.347 38.4299 22.891C37.9199 23.4237 37.6649 24.1433 37.6649 25.05C37.6649 25.9567 37.9199 26.682 38.4299 27.226C38.9399 27.7587 39.6143 28.025 40.4529 28.025C41.4503 28.025 42.3173 27.5603 43.0539 26.631L45.5869 28.892C44.9976 29.6627 44.2496 30.252 43.3429 30.66C42.4363 31.068 41.4049 31.272 40.2489 31.272ZM56.8481 22.211H53.3631V31H49.4191V22.211H45.9341V19.1H56.8481V22.211ZM65.9715 28.926H61.4495L60.6505 31H56.5705L61.7725 19.1H65.7165L70.9185 31H66.7705L65.9715 28.926ZM64.8665 26.036L63.7105 23.044L62.5545 26.036H64.8665ZM81.1629 24.761C81.8316 24.999 82.3416 25.356 82.6929 25.832C83.0442 26.2967 83.2199 26.869 83.2199 27.549C83.2199 28.6143 82.7949 29.4587 81.9449 30.082C81.1062 30.694 79.9162 31 78.3749 31H72.0169V19.1H78.0519C79.5252 19.1 80.6642 19.372 81.4689 19.916C82.2849 20.46 82.6929 21.225 82.6929 22.211C82.6929 22.7777 82.5569 23.2763 82.2849 23.707C82.0242 24.1377 81.6502 24.489 81.1629 24.761ZM75.9609 23.673H77.6609C78.3182 23.673 78.6469 23.384 78.6469 22.806C78.6469 22.2053 78.3182 21.905 77.6609 21.905H75.9609V23.673ZM78.1879 28.195C78.8452 28.195 79.1739 27.8777 79.1739 27.243C79.1739 26.631 78.8452 26.325 78.1879 26.325H75.9609V28.195H78.1879ZM84.6507 19.1H88.5947V25.288L92.6917 19.1H96.4657V31H92.5217V24.829L88.4417 31H84.6507V19.1ZM108.711 22.211H105.226V31H101.282V22.211H97.7974V19.1H108.711V22.211ZM116.443 22.755C117.928 22.755 119.073 23.0893 119.877 23.758C120.682 24.4153 121.084 25.39 121.084 26.682C121.084 28.076 120.625 29.147 119.707 29.895C118.789 30.6317 117.531 31 115.933 31H110.034V19.1H113.978V22.755H116.443ZM115.661 28.195C116.069 28.195 116.404 28.0703 116.664 27.821C116.925 27.5603 117.055 27.2033 117.055 26.75C117.055 25.9567 116.591 25.56 115.661 25.56H113.978V28.195H115.661ZM135.539 24.812C136.173 25.0727 136.666 25.4523 137.018 25.951C137.38 26.4497 137.562 27.0163 137.562 27.651C137.562 28.399 137.295 29.0507 136.763 29.606C136.241 30.15 135.533 30.5693 134.638 30.864C133.754 31.1473 132.768 31.289 131.68 31.289C129.946 31.289 128.297 30.9433 126.733 30.252L127.906 27.481C128.461 27.7077 129.039 27.8833 129.64 28.008C130.24 28.1213 130.807 28.178 131.34 28.178C131.986 28.178 132.507 28.0873 132.904 27.906C133.312 27.7247 133.516 27.4583 133.516 27.107C133.516 26.631 133.125 26.393 132.343 26.393H129.13V23.503H132.003C132.343 23.503 132.598 23.4407 132.768 23.316C132.949 23.1913 133.04 23.0157 133.04 22.789C133.04 22.4943 132.881 22.2677 132.564 22.109C132.258 21.9503 131.85 21.871 131.34 21.871C130.864 21.871 130.348 21.939 129.793 22.075C129.237 22.211 128.71 22.4037 128.212 22.653L127.039 19.678C128.353 19.0773 129.781 18.777 131.323 18.777C132.354 18.777 133.306 18.9187 134.179 19.202C135.063 19.4853 135.765 19.899 136.287 20.443C136.819 20.9757 137.086 21.6047 137.086 22.33C137.086 22.8627 136.95 23.3443 136.678 23.775C136.406 24.2057 136.026 24.5513 135.539 24.812ZM147.386 28.926H142.864L142.065 31H137.985L143.187 19.1H147.131L152.333 31H148.185L147.386 28.926ZM146.281 26.036L145.125 23.044L143.969 26.036H146.281ZM163.188 19.1V31H159.244V28.178H158.173L156.354 31H152.155L154.501 27.6C153.731 27.2373 153.136 26.7273 152.716 26.07C152.308 25.4013 152.104 24.6137 152.104 23.707C152.104 22.7663 152.325 21.9503 152.767 21.259C153.221 20.5677 153.861 20.035 154.688 19.661C155.516 19.287 156.49 19.1 157.612 19.1H163.188ZM157.68 22.194C156.66 22.194 156.15 22.6757 156.15 23.639C156.15 24.6477 156.66 25.152 157.68 25.152H159.244V22.194H157.68ZM174.447 24.761C175.116 24.999 175.626 25.356 175.977 25.832C176.328 26.2967 176.504 26.869 176.504 27.549C176.504 28.6143 176.079 29.4587 175.229 30.082C174.39 30.694 173.2 31 171.659 31H165.301V19.1H171.336C172.809 19.1 173.948 19.372 174.753 19.916C175.569 20.46 175.977 21.225 175.977 22.211C175.977 22.7777 175.841 23.2763 175.569 23.707C175.308 24.1377 174.934 24.489 174.447 24.761ZM169.245 23.673H170.945C171.602 23.673 171.931 23.384 171.931 22.806C171.931 22.2053 171.602 21.905 170.945 21.905H169.245V23.673ZM171.472 28.195C172.129 28.195 172.458 27.8777 172.458 27.243C172.458 26.631 172.129 26.325 171.472 26.325H169.245V28.195H171.472ZM186.248 24.88L189.767 31H185.245L182.967 26.699H181.845V31H177.833V19.1H181.845V23.537H183.069L185.602 19.1H189.784L186.248 24.88ZM202.834 19.1L198.057 28.059C197.49 29.1243 196.793 29.9347 195.966 30.49C195.15 31.0453 194.249 31.323 193.263 31.323C192.504 31.323 191.733 31.1643 190.951 30.847L191.886 27.957C192.385 28.093 192.793 28.161 193.11 28.161C193.405 28.161 193.654 28.11 193.858 28.008C194.073 27.906 194.277 27.736 194.47 27.498L189.914 19.1H194.147L196.51 24.115L198.958 19.1H202.834Z" fill="#1F2F15"/>
</g>
<defs>
<filter id="filter0_dd_3724_4002" x="0.9" y="0.9" width="217.169" height="51.2" filterUnits="userSpaceOnUse" color-interpolation-filters="sRGB">
<feFlood flood-opacity="0" result="BackgroundImageFix"/>
<feColorMatrix in="SourceAlpha" type="matrix" values="0 0 0 0 0 0 0 0 0 0 0 0 0 0 0 0 0 0 127 0" result="hardAlpha"/>
<feOffset dy="4"/>
<feGaussianBlur stdDeviation="4.55"/>
<feComposite in2="hardAlpha" operator="out"/>
<feColorMatrix type="matrix" values="0 0 0 0 0 0 0 0 0 0 0 0 0 0 0 0 0 0 0.67 0"/>
<feBlend mode="normal" in2="BackgroundImageFix" result="effect1_dropShadow_3724_4002"/>
<feColorMatrix in="SourceAlpha" type="matrix" values="0 0 0 0 0 0 0 0 0 0 0 0 0 0 0 0 0 0 127 0" result="hardAlpha"/>
<feOffset/>
<feGaussianBlur stdDeviation="4.55"/>
<feComposite in2="hardAlpha" operator="out"/>
<feColorMatrix type="matrix" values="0 0 0 0 0.882353 0 0 0 0 0.795294 0 0 0 0 0.0117647 0 0 0 1 0"/>
<feBlend mode="normal" in2="effect1_dropShadow_3724_4002" result="effect2_dropShadow_3724_4002"/>
<feBlend mode="normal" in="SourceGraphic" in2="effect2_dropShadow_3724_4002" result="shape"/>
</filter>
<filter id="filter1_i_3724_4002" x="18.9906" y="18.7773" width="183.845" height="12.9469" filterUnits="userSpaceOnUse" color-interpolation-filters="sRGB">
<feFlood flood-opacity="0" result="BackgroundImageFix"/>
<feBlend mode="normal" in="SourceGraphic" in2="BackgroundImageFix" result="shape"/>
<feColorMatrix in="SourceAlpha" type="matrix" values="0 0 0 0 0 0 0 0 0 0 0 0 0 0 0 0 0 0 127 0" result="hardAlpha"/>
<feOffset dx="-1" dy="1"/>
<feGaussianBlur stdDeviation="0.2"/>
<feComposite in2="hardAlpha" operator="arithmetic" k2="-1" k3="1"/>
<feColorMatrix type="matrix" values="0 0 0 0 0 0 0 0 0 0 0 0 0 0 0 0 0 0 1 0"/>
<feBlend mode="normal" in2="shape" result="effect1_innerShadow_3724_4002"/>
</filter>
</defs>
</svg>
