<svg width="104" height="110" viewBox="0 0 104 110" fill="none" xmlns="http://www.w3.org/2000/svg">
<g filter="url(#filter0_d_2588_487)">
<mask id="path-1-outside-1_2588_487" maskUnits="userSpaceOnUse" x="7" y="3" width="90" height="96" fill="black">
<rect fill="white" x="7" y="3" width="90" height="96"/>
<path d="M20.5616 69.9682V70.9896H11.029V77.4584H20.173V78.4798H11.029V86.197H9.82881V69.9682H20.5616Z"/>
<path d="M23.9906 78.0372C23.9906 82.8718 26.2881 85.2891 30.883 85.2891C35.394 85.2891 37.6496 82.8718 37.6496 78.0372C37.6496 73.2631 35.394 70.8761 30.883 70.8761C26.2881 70.8761 23.9906 73.2631 23.9906 78.0372ZM22.6762 78.1053C22.6762 72.6049 25.4118 69.8547 30.883 69.8547C36.2703 69.8547 38.964 72.6049 38.964 78.1053C38.964 83.5755 36.2703 86.3105 30.883 86.3105C25.4118 86.3105 22.6762 83.5755 22.6762 78.1053Z"/>
<path d="M42.0616 86.197V69.9682H48.8053C51.7619 69.9682 53.2402 71.2657 53.2402 73.8608C53.2402 76.1079 51.6361 77.7005 48.4281 78.6387L53.9488 86.197H52.3029L46.8736 78.6728V77.867C50.2264 77.3752 51.9028 76.0701 51.9028 73.9516C51.9028 71.9996 50.8056 71.0236 48.611 71.0236H43.2617V86.197H42.0616Z"/>
<path d="M66.9219 69.9682V70.9896H57.3893V77.4584H66.5333V78.4798H57.3893V85.1756H67.082V86.197H56.1891V69.9682H66.9219Z"/>
<path d="M70.3395 85.6296V84.3812C72.054 84.9865 73.9438 85.2891 76.0088 85.2891C79.4302 85.2891 81.1409 84.0029 81.1409 81.4305C81.1409 79.539 80.0284 78.5933 77.8034 78.5933H74.4429C71.4025 78.5933 69.8823 77.2315 69.8823 74.5077C69.8823 71.4057 72.1112 69.8547 76.5689 69.8547C78.3977 69.8547 80.1694 70.0817 81.8839 70.5356V71.6705C80.1694 71.1409 78.3977 70.8761 76.5689 70.8761C72.9113 70.8761 71.0825 72.0866 71.0825 74.5077C71.0825 76.4749 72.2026 77.4584 74.4429 77.4584H77.8034C80.8285 77.4584 82.3411 78.7825 82.3411 81.4305C82.3411 84.6839 80.2303 86.3105 76.0088 86.3105C73.9438 86.3105 72.054 86.0835 70.3395 85.6296Z"/>
<path d="M96 69.9682V70.9896H90.3993V86.197H89.1991V70.9896H83.7127V69.9682H96Z"/>
<path d="M56.9519 12.2925C55.9203 14.5838 52.9173 15.9055 50.4166 15.2678C47.792 14.5996 45.9559 12.0262 46.1377 9.2744C46.3013 6.79239 48.4851 4.26299 50.8233 4C49.2565 4.92553 48.2067 6.11856 47.9215 7.82176C47.6375 9.52271 48.1442 11.0024 49.2963 12.2914C51.0335 14.2328 54.3978 14.8468 56.9519 12.2914V12.2925Z"/>
<path d="M13.6662 56.0896C13.823 55.909 13.9661 55.7442 14.1661 55.5128C15.3807 56.8029 16.5623 58.058 17.819 59.3933C17.819 58.4418 17.8065 56.2087 17.8065 56.2087C17.8065 56.2087 14.8626 53.2667 13.4798 51.7588C15.0137 50.0274 16.5442 48.3005 18.1178 46.525C19.7425 48.3208 21.3093 50.0522 22.9034 51.8152L18.4995 56.1867L18.5086 59.2567C19.8221 57.9914 21.0844 56.7736 22.3717 55.5331C22.4944 55.6991 22.616 55.8616 22.7432 56.0332C21.4275 57.4384 20.1277 58.8233 18.8347 60.215C18.7166 60.3425 18.5666 60.5118 18.5643 60.6642C18.5439 62.1484 18.5518 63.6315 18.5518 65.1654H26.5926C26.5926 64.9499 26.5926 64.732 26.5926 64.5153C26.5926 58.3458 26.596 52.1753 26.5835 46.0058C26.5835 45.7902 26.487 45.5273 26.3438 45.367C24.3316 43.1186 22.3058 40.8815 20.272 38.6524C20.0504 38.4097 20.0573 38.2483 20.2981 38.0519C20.4424 37.9345 20.5708 37.7968 20.7435 37.6332C22.6671 39.7472 24.5782 41.8466 26.5313 43.9922C26.5517 43.8658 26.5801 43.7721 26.5801 43.6796C26.5847 42.2687 26.6006 40.8578 26.5745 39.4481C26.5699 39.1998 26.4461 38.9029 26.2779 38.7156C24.1873 36.3882 22.0774 34.0766 19.9334 31.7177C22.3069 29.0562 24.6713 26.4049 27.0528 23.7344C29.4377 26.441 31.7657 29.0833 34.104 31.738C32.7803 33.2121 31.4851 34.6568 30.1864 36.097C29.4161 36.9514 28.6332 37.7946 27.8709 38.6557C27.7447 38.798 27.6277 39.0079 27.6254 39.1874C27.6095 40.71 27.6197 42.2337 27.6254 43.7575C27.6254 43.7857 27.6618 43.8139 27.7004 43.8715C29.7024 41.7213 31.6975 39.579 33.7154 37.4119C33.8461 37.5541 33.9529 37.6715 34.0835 37.8137C35.4788 36.2832 36.8479 34.7809 38.242 33.2515C40.1565 35.3859 44.7865 40.3398 44.7865 40.3398C43.014 42.1942 40.7462 44.6017 38.9998 46.4821C38.8942 46.5961 38.784 46.7632 38.7817 46.9076C38.7647 48.1436 38.7715 49.3784 38.7715 50.6425C44.8444 44.56 50.1607 37.8612 55.9155 31.4953C57.1539 32.9479 58.3549 34.3565 59.6569 35.8837C59.6569 34.9096 59.6558 34.089 59.6569 33.2696C59.6615 31.3508 59.6751 28.8564 59.6649 26.9376C59.6649 26.9376 62.7678 26.9376 64.1335 26.9376C64.1335 27.1803 64.1336 27.3724 64.1335 27.651C64.1323 32.8335 64.0879 36.6145 64.0697 40.9216C64.0697 40.9216 68.2 45.9708 70.0077 48.0973C70.1156 48.2237 70.2053 48.3648 70.3281 48.533C70.0326 48.7745 69.7622 48.9946 69.4339 49.2621C68.9658 48.726 68.5113 48.2068 67.9739 47.5905V65.1688H73.1958C73.1958 64.9623 73.1958 64.7467 73.1958 64.5311C73.214 55.2205 73.2367 36.1331 73.2367 36.1331L68.317 31.0416L68.9692 30.4942L73.1958 34.931C73.1958 34.1003 73.1751 31.4532 73.1751 31.4532L68.1625 26.125C69.9338 24.0944 71.7108 22.0583 73.5287 19.9747C75.3682 22.0639 77.1452 24.082 78.962 26.1453L74.0082 31.4532C74.0082 31.4532 74.0184 34.0879 74.0184 34.6884C75.5409 33.2572 76.9907 31.8937 78.4723 30.5009L79.192 31.2416L74.09 36.1331V36.8171C74.0968 45.4505 74.09 54.085 74.0877 62.7184C74.0877 63.5255 74.0877 64.3313 74.0877 65.179H79.3949C79.4051 64.9871 79.4221 64.8223 79.4221 64.6587C79.4346 61.5175 79.4517 57.9217 79.4437 54.7805C79.4437 54.7805 76.3578 51.6143 74.9137 50.0669C74.9137 50.0669 75.3091 49.7226 75.5273 49.533C76.7884 50.8852 78.0542 52.243 79.4346 53.7216C79.4346 52.5353 79.4199 50.454 79.4199 50.454C79.4199 50.454 76.056 46.799 74.5062 45.1534C76.2458 43.203 77.9724 41.2653 79.7289 39.2946C81.515 41.2856 83.227 43.1863 84.996 45.1582L80.2379 50.454C80.2379 50.454 80.222 52.6392 80.222 53.7058C81.6797 52.2046 83.0364 50.8062 84.4407 49.3592C84.6248 49.5872 84.7815 49.7802 84.9463 49.9845C83.4045 51.6098 81.7184 53.189 80.222 54.7805C80.2209 58.0718 80.2515 61.7523 80.2606 65.0435C80.2606 65.0774 80.2868 65.1101 80.3152 65.179H86.3597C86.3597 63.7207 86.3211 62.1293 86.3029 60.7049L83.9311 58.3245L84.3668 57.8718C84.3668 57.8718 85.6212 59.0976 86.3029 59.7624L86.3272 58.113C86.3272 58.113 84.2237 56.2871 83.4193 55.4508C84.4532 54.3153 85.4724 53.1956 86.5472 52.0139C87.6095 53.1843 88.6185 54.2961 89.649 55.4327L86.8755 58.113V59.8053L88.9389 57.8966L89.3091 58.3245L86.8755 60.7049V65.1722H95.1697V66.275H8V65.2196H17.8303C17.8303 63.6496 17.8371 62.1496 17.8178 60.6495C17.8167 60.5175 17.6554 60.3741 17.5474 60.2567C16.2681 58.8763 14.983 57.5005 13.6662 56.0862V56.0896ZM50.8992 52.5793H58.3469V65.1733H66.7604C66.7763 65.0616 66.7956 64.9905 66.7945 64.9183C66.7922 58.786 66.7922 52.5022 66.7763 46.37C66.7763 46.37 60.9727 39.368 58.1856 36.0959C57.4198 35.1974 56.6563 34.2956 55.8734 33.3735C55.3746 33.9784 54.9315 34.5371 54.4645 35.0778C51.4468 38.5722 47.9894 42.7022 44.9876 46.2113C44.9546 52.2498 44.9546 58.742 44.9478 64.7806C44.9478 64.9092 44.966 65.039 44.9751 65.1609H50.8969V52.5805L50.8992 52.5793ZM32.235 40.535C30.7625 42.1378 29.3161 43.6976 27.8936 45.2812C27.7277 45.4652 27.6232 45.7722 27.6232 46.0228C27.6107 52.2091 27.6163 58.3955 27.6186 64.5819C27.6186 64.7806 27.6186 64.9792 27.6186 65.1779H37.7682C37.7966 65.1079 37.8216 65.074 37.8216 65.0413C37.8284 60.829 37.8364 56.6178 37.8318 52.4055C37.8318 52.2588 37.7409 52.0838 37.6387 51.971C36.5479 50.7712 35.4481 49.5804 34.3483 48.3885C33.6484 47.63 32.9474 46.8727 32.2259 46.0927C32.452 45.8783 32.6383 45.7022 32.8599 45.4911C34.5153 47.2327 36.1412 48.9416 37.8421 50.7305C37.8421 49.3761 37.8466 48.1368 37.8364 46.8986C37.8364 46.762 37.7943 46.5905 37.7069 46.4934C35.8901 44.5035 34.0631 42.5215 32.2361 40.535H32.235ZM43.7025 65.1824V47.9336C43.656 47.9178 43.6105 47.9032 43.5639 47.8885C43.1481 48.3761 42.7311 48.8637 42.3153 49.3513C42.2959 49.2836 41.9913 48.9238 41.972 48.8561C41.7057 49.0677 41.759 49.0677 41.6381 49.1628C40.7768 50.0308 39.9383 50.9224 39.1282 51.8389C38.9396 52.0511 38.7885 52.3818 38.7862 52.6584C38.7647 56.6054 38.7703 60.5525 38.7703 64.4995C38.7703 64.7185 38.7703 64.9386 38.7703 65.1835H43.7014L43.7025 65.1824ZM57.146 65.1937V53.7464H52.0865V57.2476H53.3295V58.2443H52.0979V65.1925H57.146V65.1937ZM26.5165 37.3329V25.9895C24.7622 27.9523 23.0966 29.8158 21.3866 31.7289C23.0716 33.5687 24.7588 35.4119 26.5165 37.3329ZM27.6732 26.1013V37.1964C29.3877 35.3272 31.0283 33.5371 32.6883 31.7278C31.034 29.8722 29.382 28.0189 27.6732 26.1024V26.1013ZM33.2598 40.2235C34.7709 41.8454 36.2719 43.4561 37.7841 45.0803V35.2493C36.2514 36.9345 34.7857 38.5451 33.2598 40.2235ZM43.3424 40.3409C41.8335 38.6783 40.3451 37.0406 38.7908 35.3272V45.0543C40.3201 43.4708 41.8301 41.9064 43.3424 40.3398V40.3409ZM60.892 28.1532C60.8897 30.9174 60.8318 34.1127 60.8409 36.8769V37.2189C61.4601 37.9887 62.2361 38.9289 62.928 39.7483V28.1532H60.892ZM73.1674 30.2097V21.7863C71.8358 23.2829 70.5678 24.7073 69.2884 26.1464C70.5735 27.4929 71.8278 28.8067 73.1674 30.2097ZM79.396 40.9549C78.0962 42.4075 76.8759 43.7721 75.6477 45.1446C76.8964 46.455 78.1019 47.7214 79.396 49.0793V40.9549ZM77.8099 26.1137L74.0752 22.0334V30.2097L77.8099 26.1137ZM80.2493 48.9562C81.4934 47.6469 82.6682 46.4122 83.8612 45.1582C82.658 43.8274 81.4673 42.5102 80.2493 41.1637V48.9562ZM17.7849 55.2758V48.0984C16.6521 49.3671 15.5932 50.5533 14.507 51.7689C15.5989 52.9371 16.6635 54.076 17.7849 55.2758ZM18.5848 48.0984L18.5643 55.2758L21.9672 51.8897L18.5848 48.0984ZM88.9264 55.4801C88.2117 54.69 87.5663 53.9755 86.8755 53.2103V57.3108C87.5334 56.7239 88.2299 56.102 88.9264 55.4801ZM86.3074 57.3492V53.2803C85.603 54.0591 84.9645 54.7634 84.268 55.5331C84.9781 56.1652 85.6632 56.7758 86.3074 57.3492Z"/>
<path d="M26.2246 89.4638L22.4983 97.9035H21.2966L17.5582 89.4638H18.8691L21.9278 96.3965L25.0108 89.4638H26.2246Z"/>
<path d="M29.7357 89.4638H30.9495V97.9035H29.7357V89.4638Z"/>
<path d="M35.9209 89.4638H37.1346V96.8546H41.7349V97.9035H35.9209V89.4638Z"/>
<path d="M45.5553 89.4638H46.7691V96.8546H51.3694V97.9035H45.5553V89.4638Z"/>
<path d="M60.6389 95.7936H56.1236L55.189 97.9035H53.9388L57.7865 89.4638H58.9881L62.848 97.9035H61.5735L60.6389 95.7936ZM60.2141 94.8291L58.3812 90.6936L56.5484 94.8291H60.2141Z"/>
<path d="M72.3114 93.6355H73.4767V96.927C73.0559 97.2726 72.5663 97.5378 72.008 97.7227C71.4496 97.9076 70.867 98 70.2601 98C69.4024 98 68.6296 97.8151 67.9418 97.4454C67.2539 97.0676 66.7118 96.5532 66.3153 95.9021C65.9269 95.243 65.7327 94.5035 65.7327 93.6837C65.7327 92.8638 65.9269 92.1244 66.3153 91.4652C66.7118 90.8061 67.2539 90.2917 67.9418 89.922C68.6377 89.5522 69.4185 89.3674 70.2844 89.3674C70.9641 89.3674 71.5791 89.4799 72.1293 89.705C72.6877 89.922 73.1611 90.2435 73.5495 90.6695L72.7969 91.417C72.1172 90.766 71.2959 90.4404 70.3329 90.4404C69.6856 90.4404 69.103 90.5811 68.5851 90.8624C68.0753 91.1357 67.6747 91.5215 67.3834 92.0199C67.0921 92.5102 66.9464 93.0648 66.9464 93.6837C66.9464 94.2946 67.0921 94.8492 67.3834 95.3475C67.6747 95.8378 68.0753 96.2236 68.5851 96.505C69.103 96.7863 69.6815 96.927 70.3208 96.927C71.0814 96.927 71.745 96.7461 72.3114 96.3844V93.6355Z"/>
<path d="M84.3942 96.8546V97.9035H78.2282V89.4638H84.2243V90.5128H79.442V93.105H83.7024V94.1298H79.442V96.8546H84.3942Z"/>
</mask>
<path d="M20.5616 69.9682V70.9896H11.029V77.4584H20.173V78.4798H11.029V86.197H9.82881V69.9682H20.5616Z" fill="white"/>
<path d="M23.9906 78.0372C23.9906 82.8718 26.2881 85.2891 30.883 85.2891C35.394 85.2891 37.6496 82.8718 37.6496 78.0372C37.6496 73.2631 35.394 70.8761 30.883 70.8761C26.2881 70.8761 23.9906 73.2631 23.9906 78.0372ZM22.6762 78.1053C22.6762 72.6049 25.4118 69.8547 30.883 69.8547C36.2703 69.8547 38.964 72.6049 38.964 78.1053C38.964 83.5755 36.2703 86.3105 30.883 86.3105C25.4118 86.3105 22.6762 83.5755 22.6762 78.1053Z" fill="white"/>
<path d="M42.0616 86.197V69.9682H48.8053C51.7619 69.9682 53.2402 71.2657 53.2402 73.8608C53.2402 76.1079 51.6361 77.7005 48.4281 78.6387L53.9488 86.197H52.3029L46.8736 78.6728V77.867C50.2264 77.3752 51.9028 76.0701 51.9028 73.9516C51.9028 71.9996 50.8056 71.0236 48.611 71.0236H43.2617V86.197H42.0616Z" fill="white"/>
<path d="M66.9219 69.9682V70.9896H57.3893V77.4584H66.5333V78.4798H57.3893V85.1756H67.082V86.197H56.1891V69.9682H66.9219Z" fill="white"/>
<path d="M70.3395 85.6296V84.3812C72.054 84.9865 73.9438 85.2891 76.0088 85.2891C79.4302 85.2891 81.1409 84.0029 81.1409 81.4305C81.1409 79.539 80.0284 78.5933 77.8034 78.5933H74.4429C71.4025 78.5933 69.8823 77.2315 69.8823 74.5077C69.8823 71.4057 72.1112 69.8547 76.5689 69.8547C78.3977 69.8547 80.1694 70.0817 81.8839 70.5356V71.6705C80.1694 71.1409 78.3977 70.8761 76.5689 70.8761C72.9113 70.8761 71.0825 72.0866 71.0825 74.5077C71.0825 76.4749 72.2026 77.4584 74.4429 77.4584H77.8034C80.8285 77.4584 82.3411 78.7825 82.3411 81.4305C82.3411 84.6839 80.2303 86.3105 76.0088 86.3105C73.9438 86.3105 72.054 86.0835 70.3395 85.6296Z" fill="white"/>
<path d="M96 69.9682V70.9896H90.3993V86.197H89.1991V70.9896H83.7127V69.9682H96Z" fill="white"/>
<path d="M56.9519 12.2925C55.9203 14.5838 52.9173 15.9055 50.4166 15.2678C47.792 14.5996 45.9559 12.0262 46.1377 9.2744C46.3013 6.79239 48.4851 4.26299 50.8233 4C49.2565 4.92553 48.2067 6.11856 47.9215 7.82176C47.6375 9.52271 48.1442 11.0024 49.2963 12.2914C51.0335 14.2328 54.3978 14.8468 56.9519 12.2914V12.2925Z" fill="white"/>
<path d="M13.6662 56.0896C13.823 55.909 13.9661 55.7442 14.1661 55.5128C15.3807 56.8029 16.5623 58.058 17.819 59.3933C17.819 58.4418 17.8065 56.2087 17.8065 56.2087C17.8065 56.2087 14.8626 53.2667 13.4798 51.7588C15.0137 50.0274 16.5442 48.3005 18.1178 46.525C19.7425 48.3208 21.3093 50.0522 22.9034 51.8152L18.4995 56.1867L18.5086 59.2567C19.8221 57.9914 21.0844 56.7736 22.3717 55.5331C22.4944 55.6991 22.616 55.8616 22.7432 56.0332C21.4275 57.4384 20.1277 58.8233 18.8347 60.215C18.7166 60.3425 18.5666 60.5118 18.5643 60.6642C18.5439 62.1484 18.5518 63.6315 18.5518 65.1654H26.5926C26.5926 64.9499 26.5926 64.732 26.5926 64.5153C26.5926 58.3458 26.596 52.1753 26.5835 46.0058C26.5835 45.7902 26.487 45.5273 26.3438 45.367C24.3316 43.1186 22.3058 40.8815 20.272 38.6524C20.0504 38.4097 20.0573 38.2483 20.2981 38.0519C20.4424 37.9345 20.5708 37.7968 20.7435 37.6332C22.6671 39.7472 24.5782 41.8466 26.5313 43.9922C26.5517 43.8658 26.5801 43.7721 26.5801 43.6796C26.5847 42.2687 26.6006 40.8578 26.5745 39.4481C26.5699 39.1998 26.4461 38.9029 26.2779 38.7156C24.1873 36.3882 22.0774 34.0766 19.9334 31.7177C22.3069 29.0562 24.6713 26.4049 27.0528 23.7344C29.4377 26.441 31.7657 29.0833 34.104 31.738C32.7803 33.2121 31.4851 34.6568 30.1864 36.097C29.4161 36.9514 28.6332 37.7946 27.8709 38.6557C27.7447 38.798 27.6277 39.0079 27.6254 39.1874C27.6095 40.71 27.6197 42.2337 27.6254 43.7575C27.6254 43.7857 27.6618 43.8139 27.7004 43.8715C29.7024 41.7213 31.6975 39.579 33.7154 37.4119C33.8461 37.5541 33.9529 37.6715 34.0835 37.8137C35.4788 36.2832 36.8479 34.7809 38.242 33.2515C40.1565 35.3859 44.7865 40.3398 44.7865 40.3398C43.014 42.1942 40.7462 44.6017 38.9998 46.4821C38.8942 46.5961 38.784 46.7632 38.7817 46.9076C38.7647 48.1436 38.7715 49.3784 38.7715 50.6425C44.8444 44.56 50.1607 37.8612 55.9155 31.4953C57.1539 32.9479 58.3549 34.3565 59.6569 35.8837C59.6569 34.9096 59.6558 34.089 59.6569 33.2696C59.6615 31.3508 59.6751 28.8564 59.6649 26.9376C59.6649 26.9376 62.7678 26.9376 64.1335 26.9376C64.1335 27.1803 64.1336 27.3724 64.1335 27.651C64.1323 32.8335 64.0879 36.6145 64.0697 40.9216C64.0697 40.9216 68.2 45.9708 70.0077 48.0973C70.1156 48.2237 70.2053 48.3648 70.3281 48.533C70.0326 48.7745 69.7622 48.9946 69.4339 49.2621C68.9658 48.726 68.5113 48.2068 67.9739 47.5905V65.1688H73.1958C73.1958 64.9623 73.1958 64.7467 73.1958 64.5311C73.214 55.2205 73.2367 36.1331 73.2367 36.1331L68.317 31.0416L68.9692 30.4942L73.1958 34.931C73.1958 34.1003 73.1751 31.4532 73.1751 31.4532L68.1625 26.125C69.9338 24.0944 71.7108 22.0583 73.5287 19.9747C75.3682 22.0639 77.1452 24.082 78.962 26.1453L74.0082 31.4532C74.0082 31.4532 74.0184 34.0879 74.0184 34.6884C75.5409 33.2572 76.9907 31.8937 78.4723 30.5009L79.192 31.2416L74.09 36.1331V36.8171C74.0968 45.4505 74.09 54.085 74.0877 62.7184C74.0877 63.5255 74.0877 64.3313 74.0877 65.179H79.3949C79.4051 64.9871 79.4221 64.8223 79.4221 64.6587C79.4346 61.5175 79.4517 57.9217 79.4437 54.7805C79.4437 54.7805 76.3578 51.6143 74.9137 50.0669C74.9137 50.0669 75.3091 49.7226 75.5273 49.533C76.7884 50.8852 78.0542 52.243 79.4346 53.7216C79.4346 52.5353 79.4199 50.454 79.4199 50.454C79.4199 50.454 76.056 46.799 74.5062 45.1534C76.2458 43.203 77.9724 41.2653 79.7289 39.2946C81.515 41.2856 83.227 43.1863 84.996 45.1582L80.2379 50.454C80.2379 50.454 80.222 52.6392 80.222 53.7058C81.6797 52.2046 83.0364 50.8062 84.4407 49.3592C84.6248 49.5872 84.7815 49.7802 84.9463 49.9845C83.4045 51.6098 81.7184 53.189 80.222 54.7805C80.2209 58.0718 80.2515 61.7523 80.2606 65.0435C80.2606 65.0774 80.2868 65.1101 80.3152 65.179H86.3597C86.3597 63.7207 86.3211 62.1293 86.3029 60.7049L83.9311 58.3245L84.3668 57.8718C84.3668 57.8718 85.6212 59.0976 86.3029 59.7624L86.3272 58.113C86.3272 58.113 84.2237 56.2871 83.4193 55.4508C84.4532 54.3153 85.4724 53.1956 86.5472 52.0139C87.6095 53.1843 88.6185 54.2961 89.649 55.4327L86.8755 58.113V59.8053L88.9389 57.8966L89.3091 58.3245L86.8755 60.7049V65.1722H95.1697V66.275H8V65.2196H17.8303C17.8303 63.6496 17.8371 62.1496 17.8178 60.6495C17.8167 60.5175 17.6554 60.3741 17.5474 60.2567C16.2681 58.8763 14.983 57.5005 13.6662 56.0862V56.0896ZM50.8992 52.5793H58.3469V65.1733H66.7604C66.7763 65.0616 66.7956 64.9905 66.7945 64.9183C66.7922 58.786 66.7922 52.5022 66.7763 46.37C66.7763 46.37 60.9727 39.368 58.1856 36.0959C57.4198 35.1974 56.6563 34.2956 55.8734 33.3735C55.3746 33.9784 54.9315 34.5371 54.4645 35.0778C51.4468 38.5722 47.9894 42.7022 44.9876 46.2113C44.9546 52.2498 44.9546 58.742 44.9478 64.7806C44.9478 64.9092 44.966 65.039 44.9751 65.1609H50.8969V52.5805L50.8992 52.5793ZM32.235 40.535C30.7625 42.1378 29.3161 43.6976 27.8936 45.2812C27.7277 45.4652 27.6232 45.7722 27.6232 46.0228C27.6107 52.2091 27.6163 58.3955 27.6186 64.5819C27.6186 64.7806 27.6186 64.9792 27.6186 65.1779H37.7682C37.7966 65.1079 37.8216 65.074 37.8216 65.0413C37.8284 60.829 37.8364 56.6178 37.8318 52.4055C37.8318 52.2588 37.7409 52.0838 37.6387 51.971C36.5479 50.7712 35.4481 49.5804 34.3483 48.3885C33.6484 47.63 32.9474 46.8727 32.2259 46.0927C32.452 45.8783 32.6383 45.7022 32.8599 45.4911C34.5153 47.2327 36.1412 48.9416 37.8421 50.7305C37.8421 49.3761 37.8466 48.1368 37.8364 46.8986C37.8364 46.762 37.7943 46.5905 37.7069 46.4934C35.8901 44.5035 34.0631 42.5215 32.2361 40.535H32.235ZM43.7025 65.1824V47.9336C43.656 47.9178 43.6105 47.9032 43.5639 47.8885C43.1481 48.3761 42.7311 48.8637 42.3153 49.3513C42.2959 49.2836 41.9913 48.9238 41.972 48.8561C41.7057 49.0677 41.759 49.0677 41.6381 49.1628C40.7768 50.0308 39.9383 50.9224 39.1282 51.8389C38.9396 52.0511 38.7885 52.3818 38.7862 52.6584C38.7647 56.6054 38.7703 60.5525 38.7703 64.4995C38.7703 64.7185 38.7703 64.9386 38.7703 65.1835H43.7014L43.7025 65.1824ZM57.146 65.1937V53.7464H52.0865V57.2476H53.3295V58.2443H52.0979V65.1925H57.146V65.1937ZM26.5165 37.3329V25.9895C24.7622 27.9523 23.0966 29.8158 21.3866 31.7289C23.0716 33.5687 24.7588 35.4119 26.5165 37.3329ZM27.6732 26.1013V37.1964C29.3877 35.3272 31.0283 33.5371 32.6883 31.7278C31.034 29.8722 29.382 28.0189 27.6732 26.1024V26.1013ZM33.2598 40.2235C34.7709 41.8454 36.2719 43.4561 37.7841 45.0803V35.2493C36.2514 36.9345 34.7857 38.5451 33.2598 40.2235ZM43.3424 40.3409C41.8335 38.6783 40.3451 37.0406 38.7908 35.3272V45.0543C40.3201 43.4708 41.8301 41.9064 43.3424 40.3398V40.3409ZM60.892 28.1532C60.8897 30.9174 60.8318 34.1127 60.8409 36.8769V37.2189C61.4601 37.9887 62.2361 38.9289 62.928 39.7483V28.1532H60.892ZM73.1674 30.2097V21.7863C71.8358 23.2829 70.5678 24.7073 69.2884 26.1464C70.5735 27.4929 71.8278 28.8067 73.1674 30.2097ZM79.396 40.9549C78.0962 42.4075 76.8759 43.7721 75.6477 45.1446C76.8964 46.455 78.1019 47.7214 79.396 49.0793V40.9549ZM77.8099 26.1137L74.0752 22.0334V30.2097L77.8099 26.1137ZM80.2493 48.9562C81.4934 47.6469 82.6682 46.4122 83.8612 45.1582C82.658 43.8274 81.4673 42.5102 80.2493 41.1637V48.9562ZM17.7849 55.2758V48.0984C16.6521 49.3671 15.5932 50.5533 14.507 51.7689C15.5989 52.9371 16.6635 54.076 17.7849 55.2758ZM18.5848 48.0984L18.5643 55.2758L21.9672 51.8897L18.5848 48.0984ZM88.9264 55.4801C88.2117 54.69 87.5663 53.9755 86.8755 53.2103V57.3108C87.5334 56.7239 88.2299 56.102 88.9264 55.4801ZM86.3074 57.3492V53.2803C85.603 54.0591 84.9645 54.7634 84.268 55.5331C84.9781 56.1652 85.6632 56.7758 86.3074 57.3492Z" fill="white"/>
<path d="M26.2246 89.4638L22.4983 97.9035H21.2966L17.5582 89.4638H18.8691L21.9278 96.3965L25.0108 89.4638H26.2246Z" fill="white"/>
<path d="M29.7357 89.4638H30.9495V97.9035H29.7357V89.4638Z" fill="white"/>
<path d="M35.9209 89.4638H37.1346V96.8546H41.7349V97.9035H35.9209V89.4638Z" fill="white"/>
<path d="M45.5553 89.4638H46.7691V96.8546H51.3694V97.9035H45.5553V89.4638Z" fill="white"/>
<path d="M60.6389 95.7936H56.1236L55.189 97.9035H53.9388L57.7865 89.4638H58.9881L62.848 97.9035H61.5735L60.6389 95.7936ZM60.2141 94.8291L58.3812 90.6936L56.5484 94.8291H60.2141Z" fill="white"/>
<path d="M72.3114 93.6355H73.4767V96.927C73.0559 97.2726 72.5663 97.5378 72.008 97.7227C71.4496 97.9076 70.867 98 70.2601 98C69.4024 98 68.6296 97.8151 67.9418 97.4454C67.2539 97.0676 66.7118 96.5532 66.3153 95.9021C65.9269 95.243 65.7327 94.5035 65.7327 93.6837C65.7327 92.8638 65.9269 92.1244 66.3153 91.4652C66.7118 90.8061 67.2539 90.2917 67.9418 89.922C68.6377 89.5522 69.4185 89.3674 70.2844 89.3674C70.9641 89.3674 71.5791 89.4799 72.1293 89.705C72.6877 89.922 73.1611 90.2435 73.5495 90.6695L72.7969 91.417C72.1172 90.766 71.2959 90.4404 70.3329 90.4404C69.6856 90.4404 69.103 90.5811 68.5851 90.8624C68.0753 91.1357 67.6747 91.5215 67.3834 92.0199C67.0921 92.5102 66.9464 93.0648 66.9464 93.6837C66.9464 94.2946 67.0921 94.8492 67.3834 95.3475C67.6747 95.8378 68.0753 96.2236 68.5851 96.505C69.103 96.7863 69.6815 96.927 70.3208 96.927C71.0814 96.927 71.745 96.7461 72.3114 96.3844V93.6355Z" fill="white"/>
<path d="M84.3942 96.8546V97.9035H78.2282V89.4638H84.2243V90.5128H79.442V93.105H83.7024V94.1298H79.442V96.8546H84.3942Z" fill="white"/>
<path d="M20.5616 69.9682V70.9896H11.029V77.4584H20.173V78.4798H11.029V86.197H9.82881V69.9682H20.5616Z" stroke="white" stroke-width="0.6" mask="url(#path-1-outside-1_2588_487)"/>
<path d="M23.9906 78.0372C23.9906 82.8718 26.2881 85.2891 30.883 85.2891C35.394 85.2891 37.6496 82.8718 37.6496 78.0372C37.6496 73.2631 35.394 70.8761 30.883 70.8761C26.2881 70.8761 23.9906 73.2631 23.9906 78.0372ZM22.6762 78.1053C22.6762 72.6049 25.4118 69.8547 30.883 69.8547C36.2703 69.8547 38.964 72.6049 38.964 78.1053C38.964 83.5755 36.2703 86.3105 30.883 86.3105C25.4118 86.3105 22.6762 83.5755 22.6762 78.1053Z" stroke="white" stroke-width="0.6" mask="url(#path-1-outside-1_2588_487)"/>
<path d="M42.0616 86.197V69.9682H48.8053C51.7619 69.9682 53.2402 71.2657 53.2402 73.8608C53.2402 76.1079 51.6361 77.7005 48.4281 78.6387L53.9488 86.197H52.3029L46.8736 78.6728V77.867C50.2264 77.3752 51.9028 76.0701 51.9028 73.9516C51.9028 71.9996 50.8056 71.0236 48.611 71.0236H43.2617V86.197H42.0616Z" stroke="white" stroke-width="0.6" mask="url(#path-1-outside-1_2588_487)"/>
<path d="M66.9219 69.9682V70.9896H57.3893V77.4584H66.5333V78.4798H57.3893V85.1756H67.082V86.197H56.1891V69.9682H66.9219Z" stroke="white" stroke-width="0.6" mask="url(#path-1-outside-1_2588_487)"/>
<path d="M70.3395 85.6296V84.3812C72.054 84.9865 73.9438 85.2891 76.0088 85.2891C79.4302 85.2891 81.1409 84.0029 81.1409 81.4305C81.1409 79.539 80.0284 78.5933 77.8034 78.5933H74.4429C71.4025 78.5933 69.8823 77.2315 69.8823 74.5077C69.8823 71.4057 72.1112 69.8547 76.5689 69.8547C78.3977 69.8547 80.1694 70.0817 81.8839 70.5356V71.6705C80.1694 71.1409 78.3977 70.8761 76.5689 70.8761C72.9113 70.8761 71.0825 72.0866 71.0825 74.5077C71.0825 76.4749 72.2026 77.4584 74.4429 77.4584H77.8034C80.8285 77.4584 82.3411 78.7825 82.3411 81.4305C82.3411 84.6839 80.2303 86.3105 76.0088 86.3105C73.9438 86.3105 72.054 86.0835 70.3395 85.6296Z" stroke="white" stroke-width="0.6" mask="url(#path-1-outside-1_2588_487)"/>
<path d="M96 69.9682V70.9896H90.3993V86.197H89.1991V70.9896H83.7127V69.9682H96Z" stroke="white" stroke-width="0.6" mask="url(#path-1-outside-1_2588_487)"/>
<path d="M56.9519 12.2925C55.9203 14.5838 52.9173 15.9055 50.4166 15.2678C47.792 14.5996 45.9559 12.0262 46.1377 9.2744C46.3013 6.79239 48.4851 4.26299 50.8233 4C49.2565 4.92553 48.2067 6.11856 47.9215 7.82176C47.6375 9.52271 48.1442 11.0024 49.2963 12.2914C51.0335 14.2328 54.3978 14.8468 56.9519 12.2914V12.2925Z" stroke="white" stroke-width="0.6" mask="url(#path-1-outside-1_2588_487)"/>
<path d="M13.6662 56.0896C13.823 55.909 13.9661 55.7442 14.1661 55.5128C15.3807 56.8029 16.5623 58.058 17.819 59.3933C17.819 58.4418 17.8065 56.2087 17.8065 56.2087C17.8065 56.2087 14.8626 53.2667 13.4798 51.7588C15.0137 50.0274 16.5442 48.3005 18.1178 46.525C19.7425 48.3208 21.3093 50.0522 22.9034 51.8152L18.4995 56.1867L18.5086 59.2567C19.8221 57.9914 21.0844 56.7736 22.3717 55.5331C22.4944 55.6991 22.616 55.8616 22.7432 56.0332C21.4275 57.4384 20.1277 58.8233 18.8347 60.215C18.7166 60.3425 18.5666 60.5118 18.5643 60.6642C18.5439 62.1484 18.5518 63.6315 18.5518 65.1654H26.5926C26.5926 64.9499 26.5926 64.732 26.5926 64.5153C26.5926 58.3458 26.596 52.1753 26.5835 46.0058C26.5835 45.7902 26.487 45.5273 26.3438 45.367C24.3316 43.1186 22.3058 40.8815 20.272 38.6524C20.0504 38.4097 20.0573 38.2483 20.2981 38.0519C20.4424 37.9345 20.5708 37.7968 20.7435 37.6332C22.6671 39.7472 24.5782 41.8466 26.5313 43.9922C26.5517 43.8658 26.5801 43.7721 26.5801 43.6796C26.5847 42.2687 26.6006 40.8578 26.5745 39.4481C26.5699 39.1998 26.4461 38.9029 26.2779 38.7156C24.1873 36.3882 22.0774 34.0766 19.9334 31.7177C22.3069 29.0562 24.6713 26.4049 27.0528 23.7344C29.4377 26.441 31.7657 29.0833 34.104 31.738C32.7803 33.2121 31.4851 34.6568 30.1864 36.097C29.4161 36.9514 28.6332 37.7946 27.8709 38.6557C27.7447 38.798 27.6277 39.0079 27.6254 39.1874C27.6095 40.71 27.6197 42.2337 27.6254 43.7575C27.6254 43.7857 27.6618 43.8139 27.7004 43.8715C29.7024 41.7213 31.6975 39.579 33.7154 37.4119C33.8461 37.5541 33.9529 37.6715 34.0835 37.8137C35.4788 36.2832 36.8479 34.7809 38.242 33.2515C40.1565 35.3859 44.7865 40.3398 44.7865 40.3398C43.014 42.1942 40.7462 44.6017 38.9998 46.4821C38.8942 46.5961 38.784 46.7632 38.7817 46.9076C38.7647 48.1436 38.7715 49.3784 38.7715 50.6425C44.8444 44.56 50.1607 37.8612 55.9155 31.4953C57.1539 32.9479 58.3549 34.3565 59.6569 35.8837C59.6569 34.9096 59.6558 34.089 59.6569 33.2696C59.6615 31.3508 59.6751 28.8564 59.6649 26.9376C59.6649 26.9376 62.7678 26.9376 64.1335 26.9376C64.1335 27.1803 64.1336 27.3724 64.1335 27.651C64.1323 32.8335 64.0879 36.6145 64.0697 40.9216C64.0697 40.9216 68.2 45.9708 70.0077 48.0973C70.1156 48.2237 70.2053 48.3648 70.3281 48.533C70.0326 48.7745 69.7622 48.9946 69.4339 49.2621C68.9658 48.726 68.5113 48.2068 67.9739 47.5905V65.1688H73.1958C73.1958 64.9623 73.1958 64.7467 73.1958 64.5311C73.214 55.2205 73.2367 36.1331 73.2367 36.1331L68.317 31.0416L68.9692 30.4942L73.1958 34.931C73.1958 34.1003 73.1751 31.4532 73.1751 31.4532L68.1625 26.125C69.9338 24.0944 71.7108 22.0583 73.5287 19.9747C75.3682 22.0639 77.1452 24.082 78.962 26.1453L74.0082 31.4532C74.0082 31.4532 74.0184 34.0879 74.0184 34.6884C75.5409 33.2572 76.9907 31.8937 78.4723 30.5009L79.192 31.2416L74.09 36.1331V36.8171C74.0968 45.4505 74.09 54.085 74.0877 62.7184C74.0877 63.5255 74.0877 64.3313 74.0877 65.179H79.3949C79.4051 64.9871 79.4221 64.8223 79.4221 64.6587C79.4346 61.5175 79.4517 57.9217 79.4437 54.7805C79.4437 54.7805 76.3578 51.6143 74.9137 50.0669C74.9137 50.0669 75.3091 49.7226 75.5273 49.533C76.7884 50.8852 78.0542 52.243 79.4346 53.7216C79.4346 52.5353 79.4199 50.454 79.4199 50.454C79.4199 50.454 76.056 46.799 74.5062 45.1534C76.2458 43.203 77.9724 41.2653 79.7289 39.2946C81.515 41.2856 83.227 43.1863 84.996 45.1582L80.2379 50.454C80.2379 50.454 80.222 52.6392 80.222 53.7058C81.6797 52.2046 83.0364 50.8062 84.4407 49.3592C84.6248 49.5872 84.7815 49.7802 84.9463 49.9845C83.4045 51.6098 81.7184 53.189 80.222 54.7805C80.2209 58.0718 80.2515 61.7523 80.2606 65.0435C80.2606 65.0774 80.2868 65.1101 80.3152 65.179H86.3597C86.3597 63.7207 86.3211 62.1293 86.3029 60.7049L83.9311 58.3245L84.3668 57.8718C84.3668 57.8718 85.6212 59.0976 86.3029 59.7624L86.3272 58.113C86.3272 58.113 84.2237 56.2871 83.4193 55.4508C84.4532 54.3153 85.4724 53.1956 86.5472 52.0139C87.6095 53.1843 88.6185 54.2961 89.649 55.4327L86.8755 58.113V59.8053L88.9389 57.8966L89.3091 58.3245L86.8755 60.7049V65.1722H95.1697V66.275H8V65.2196H17.8303C17.8303 63.6496 17.8371 62.1496 17.8178 60.6495C17.8167 60.5175 17.6554 60.3741 17.5474 60.2567C16.2681 58.8763 14.983 57.5005 13.6662 56.0862V56.0896ZM50.8992 52.5793H58.3469V65.1733H66.7604C66.7763 65.0616 66.7956 64.9905 66.7945 64.9183C66.7922 58.786 66.7922 52.5022 66.7763 46.37C66.7763 46.37 60.9727 39.368 58.1856 36.0959C57.4198 35.1974 56.6563 34.2956 55.8734 33.3735C55.3746 33.9784 54.9315 34.5371 54.4645 35.0778C51.4468 38.5722 47.9894 42.7022 44.9876 46.2113C44.9546 52.2498 44.9546 58.742 44.9478 64.7806C44.9478 64.9092 44.966 65.039 44.9751 65.1609H50.8969V52.5805L50.8992 52.5793ZM32.235 40.535C30.7625 42.1378 29.3161 43.6976 27.8936 45.2812C27.7277 45.4652 27.6232 45.7722 27.6232 46.0228C27.6107 52.2091 27.6163 58.3955 27.6186 64.5819C27.6186 64.7806 27.6186 64.9792 27.6186 65.1779H37.7682C37.7966 65.1079 37.8216 65.074 37.8216 65.0413C37.8284 60.829 37.8364 56.6178 37.8318 52.4055C37.8318 52.2588 37.7409 52.0838 37.6387 51.971C36.5479 50.7712 35.4481 49.5804 34.3483 48.3885C33.6484 47.63 32.9474 46.8727 32.2259 46.0927C32.452 45.8783 32.6383 45.7022 32.8599 45.4911C34.5153 47.2327 36.1412 48.9416 37.8421 50.7305C37.8421 49.3761 37.8466 48.1368 37.8364 46.8986C37.8364 46.762 37.7943 46.5905 37.7069 46.4934C35.8901 44.5035 34.0631 42.5215 32.2361 40.535H32.235ZM43.7025 65.1824V47.9336C43.656 47.9178 43.6105 47.9032 43.5639 47.8885C43.1481 48.3761 42.7311 48.8637 42.3153 49.3513C42.2959 49.2836 41.9913 48.9238 41.972 48.8561C41.7057 49.0677 41.759 49.0677 41.6381 49.1628C40.7768 50.0308 39.9383 50.9224 39.1282 51.8389C38.9396 52.0511 38.7885 52.3818 38.7862 52.6584C38.7647 56.6054 38.7703 60.5525 38.7703 64.4995C38.7703 64.7185 38.7703 64.9386 38.7703 65.1835H43.7014L43.7025 65.1824ZM57.146 65.1937V53.7464H52.0865V57.2476H53.3295V58.2443H52.0979V65.1925H57.146V65.1937ZM26.5165 37.3329V25.9895C24.7622 27.9523 23.0966 29.8158 21.3866 31.7289C23.0716 33.5687 24.7588 35.4119 26.5165 37.3329ZM27.6732 26.1013V37.1964C29.3877 35.3272 31.0283 33.5371 32.6883 31.7278C31.034 29.8722 29.382 28.0189 27.6732 26.1024V26.1013ZM33.2598 40.2235C34.7709 41.8454 36.2719 43.4561 37.7841 45.0803V35.2493C36.2514 36.9345 34.7857 38.5451 33.2598 40.2235ZM43.3424 40.3409C41.8335 38.6783 40.3451 37.0406 38.7908 35.3272V45.0543C40.3201 43.4708 41.8301 41.9064 43.3424 40.3398V40.3409ZM60.892 28.1532C60.8897 30.9174 60.8318 34.1127 60.8409 36.8769V37.2189C61.4601 37.9887 62.2361 38.9289 62.928 39.7483V28.1532H60.892ZM73.1674 30.2097V21.7863C71.8358 23.2829 70.5678 24.7073 69.2884 26.1464C70.5735 27.4929 71.8278 28.8067 73.1674 30.2097ZM79.396 40.9549C78.0962 42.4075 76.8759 43.7721 75.6477 45.1446C76.8964 46.455 78.1019 47.7214 79.396 49.0793V40.9549ZM77.8099 26.1137L74.0752 22.0334V30.2097L77.8099 26.1137ZM80.2493 48.9562C81.4934 47.6469 82.6682 46.4122 83.8612 45.1582C82.658 43.8274 81.4673 42.5102 80.2493 41.1637V48.9562ZM17.7849 55.2758V48.0984C16.6521 49.3671 15.5932 50.5533 14.507 51.7689C15.5989 52.9371 16.6635 54.076 17.7849 55.2758ZM18.5848 48.0984L18.5643 55.2758L21.9672 51.8897L18.5848 48.0984ZM88.9264 55.4801C88.2117 54.69 87.5663 53.9755 86.8755 53.2103V57.3108C87.5334 56.7239 88.2299 56.102 88.9264 55.4801ZM86.3074 57.3492V53.2803C85.603 54.0591 84.9645 54.7634 84.268 55.5331C84.9781 56.1652 85.6632 56.7758 86.3074 57.3492Z" stroke="white" stroke-width="0.6" mask="url(#path-1-outside-1_2588_487)"/>
<path d="M26.2246 89.4638L22.4983 97.9035H21.2966L17.5582 89.4638H18.8691L21.9278 96.3965L25.0108 89.4638H26.2246Z" stroke="white" stroke-width="0.6" mask="url(#path-1-outside-1_2588_487)"/>
<path d="M29.7357 89.4638H30.9495V97.9035H29.7357V89.4638Z" stroke="white" stroke-width="0.6" mask="url(#path-1-outside-1_2588_487)"/>
<path d="M35.9209 89.4638H37.1346V96.8546H41.7349V97.9035H35.9209V89.4638Z" stroke="white" stroke-width="0.6" mask="url(#path-1-outside-1_2588_487)"/>
<path d="M45.5553 89.4638H46.7691V96.8546H51.3694V97.9035H45.5553V89.4638Z" stroke="white" stroke-width="0.6" mask="url(#path-1-outside-1_2588_487)"/>
<path d="M60.6389 95.7936H56.1236L55.189 97.9035H53.9388L57.7865 89.4638H58.9881L62.848 97.9035H61.5735L60.6389 95.7936ZM60.2141 94.8291L58.3812 90.6936L56.5484 94.8291H60.2141Z" stroke="white" stroke-width="0.6" mask="url(#path-1-outside-1_2588_487)"/>
<path d="M72.3114 93.6355H73.4767V96.927C73.0559 97.2726 72.5663 97.5378 72.008 97.7227C71.4496 97.9076 70.867 98 70.2601 98C69.4024 98 68.6296 97.8151 67.9418 97.4454C67.2539 97.0676 66.7118 96.5532 66.3153 95.9021C65.9269 95.243 65.7327 94.5035 65.7327 93.6837C65.7327 92.8638 65.9269 92.1244 66.3153 91.4652C66.7118 90.8061 67.2539 90.2917 67.9418 89.922C68.6377 89.5522 69.4185 89.3674 70.2844 89.3674C70.9641 89.3674 71.5791 89.4799 72.1293 89.705C72.6877 89.922 73.1611 90.2435 73.5495 90.6695L72.7969 91.417C72.1172 90.766 71.2959 90.4404 70.3329 90.4404C69.6856 90.4404 69.103 90.5811 68.5851 90.8624C68.0753 91.1357 67.6747 91.5215 67.3834 92.0199C67.0921 92.5102 66.9464 93.0648 66.9464 93.6837C66.9464 94.2946 67.0921 94.8492 67.3834 95.3475C67.6747 95.8378 68.0753 96.2236 68.5851 96.505C69.103 96.7863 69.6815 96.927 70.3208 96.927C71.0814 96.927 71.745 96.7461 72.3114 96.3844V93.6355Z" stroke="white" stroke-width="0.6" mask="url(#path-1-outside-1_2588_487)"/>
<path d="M84.3942 96.8546V97.9035H78.2282V89.4638H84.2243V90.5128H79.442V93.105H83.7024V94.1298H79.442V96.8546H84.3942Z" stroke="white" stroke-width="0.6" mask="url(#path-1-outside-1_2588_487)"/>
</g>
<defs>
<filter id="filter0_d_2588_487" x="0.903125" y="0.903125" width="102.194" height="108.198" filterUnits="userSpaceOnUse" color-interpolation-filters="sRGB">
<feFlood flood-opacity="0" result="BackgroundImageFix"/>
<feColorMatrix in="SourceAlpha" type="matrix" values="0 0 0 0 0 0 0 0 0 0 0 0 0 0 0 0 0 0 127 0" result="hardAlpha"/>
<feOffset dy="4"/>
<feGaussianBlur stdDeviation="3.4"/>
<feComposite in2="hardAlpha" operator="out"/>
<feColorMatrix type="matrix" values="0 0 0 0 0 0 0 0 0 0 0 0 0 0 0 0 0 0 0.35 0"/>
<feBlend mode="normal" in2="BackgroundImageFix" result="effect1_dropShadow_2588_487"/>
<feBlend mode="normal" in="SourceGraphic" in2="effect1_dropShadow_2588_487" result="shape"/>
</filter>
</defs>
</svg>
