<svg width="244" height="99" viewBox="0 0 244 99" fill="none" xmlns="http://www.w3.org/2000/svg">
<g clip-path="url(#clip0_2588_488)" filter="url(#filter0_d_2588_488)">
<g filter="url(#filter1_d_2588_488)">
<path d="M44.0788 14.9844V17.5504H20.4513V33.8019H43.1157V36.3679H20.4513V55.7559H17.4766V14.9844H44.0788Z" fill="white"/>
<path d="M52.5785 35.2561C52.5785 47.4018 58.2729 53.4749 69.6616 53.4749C80.8427 53.4749 86.4333 47.4018 86.4333 35.2561C86.4333 23.2622 80.8427 17.2653 69.6616 17.2653C58.2729 17.2653 52.5785 23.2622 52.5785 35.2561ZM49.3203 35.427C49.3203 21.6085 56.1009 14.6992 69.6616 14.6992C83.0147 14.6992 89.6914 21.6085 89.6914 35.427C89.6914 49.1697 83.0147 56.041 69.6616 56.041C56.1009 56.041 49.3203 49.1697 49.3203 35.427Z" fill="white"/>
<path d="M97.3672 55.7559V14.9844H114.082C121.41 14.9844 125.074 18.2443 125.074 24.7638C125.074 30.4091 121.099 34.4104 113.147 36.7672L126.831 55.7559H122.751L109.294 36.8528V34.8284C117.604 33.5929 121.76 30.3143 121.76 24.9918C121.76 20.088 119.04 17.6361 113.601 17.6361H100.342V55.7559H97.3672Z" fill="white"/>
<path d="M158.985 14.9844V17.5504H135.358V33.8019H158.022V36.3679H135.358V53.1898H159.382V55.7559H132.383V14.9844H158.985Z" fill="white"/>
<path d="M167.461 54.3301V51.1939C171.711 52.7144 176.395 53.4749 181.513 53.4749C189.994 53.4749 194.234 50.2435 194.234 43.781C194.234 39.0291 191.476 36.653 185.961 36.653H177.632C170.096 36.653 166.328 33.2316 166.328 26.389C166.328 18.5959 171.852 14.6992 182.902 14.6992C187.434 14.6992 191.826 15.2694 196.075 16.4101V19.2612C191.826 17.9306 187.434 17.2653 182.902 17.2653C173.836 17.2653 169.303 20.3064 169.303 26.389C169.303 31.3309 172.079 33.8018 177.632 33.8018H185.961C193.459 33.8018 197.208 37.1283 197.208 43.781C197.208 51.9543 191.977 56.041 181.513 56.041C176.395 56.041 171.711 55.4708 167.461 54.3301Z" fill="white"/>
<path d="M231.057 14.9844V17.5504H217.175V55.7559H214.2V17.5504H200.602V14.9844H231.057Z" fill="white"/>
<path d="M59.8608 64.0078L50.9215 84.4943H48.039L39.0703 64.0078H42.2152L49.5528 80.8361L56.9489 64.0078H59.8608Z" fill="white"/>
<path d="M68.2812 64.0078H71.1932V84.4943H68.2812V64.0078Z" fill="white"/>
<path d="M83.1172 64.0078H86.0291V81.9482H97.065V84.4943H83.1172V64.0078Z" fill="white"/>
<path d="M106.234 64.0078H109.146V81.9482H120.182V84.4943H106.234V64.0078Z" fill="white"/>
<path d="M142.417 79.3726H131.585L129.343 84.4943H126.344L135.574 64.0078H138.457L147.716 84.4943H144.659L142.417 79.3726ZM141.398 77.0313L137.001 66.9931L132.604 77.0313H141.398Z" fill="white"/>
<path d="M170.415 74.1335H173.21V82.1232C172.201 82.9623 171.027 83.606 169.687 84.0547C168.348 84.5034 166.95 84.7279 165.494 84.7279C163.436 84.7279 161.583 84.2792 159.932 83.3818C158.282 82.4647 156.982 81.2159 156.031 79.6358C155.099 78.0359 154.633 76.2407 154.633 74.2505C154.633 72.2607 155.099 70.4655 156.031 68.8656C156.982 67.2658 158.282 66.017 159.932 65.1196C161.602 64.2222 163.475 63.7734 165.552 63.7734C167.183 63.7734 168.658 64.0465 169.978 64.5929C171.318 65.1196 172.453 65.9 173.385 66.9341L171.58 68.7486C169.949 67.1681 167.979 66.3782 165.669 66.3782C164.116 66.3782 162.718 66.7194 161.476 67.4025C160.253 68.0659 159.292 69.0023 158.593 70.2121C157.894 71.4022 157.545 72.7484 157.545 74.2505C157.545 75.7334 157.894 77.0798 158.593 78.2893C159.292 79.4794 160.253 80.4162 161.476 81.0989C162.718 81.782 164.106 82.1232 165.64 82.1232C167.464 82.1232 169.056 81.6843 170.415 80.8062V74.1335Z" fill="white"/>
<path d="M199.402 81.9482V84.4943H184.609V64.0078H198.994V66.5539H187.521V72.8464H197.742V75.3338H187.521V81.9482H199.402Z" fill="white"/>
</g>
</g>
<defs>
<filter id="filter0_d_2588_488" x="-4" y="0" width="252" height="107" filterUnits="userSpaceOnUse" color-interpolation-filters="sRGB">
<feFlood flood-opacity="0" result="BackgroundImageFix"/>
<feColorMatrix in="SourceAlpha" type="matrix" values="0 0 0 0 0 0 0 0 0 0 0 0 0 0 0 0 0 0 127 0" result="hardAlpha"/>
<feOffset dy="4"/>
<feGaussianBlur stdDeviation="2"/>
<feComposite in2="hardAlpha" operator="out"/>
<feColorMatrix type="matrix" values="0 0 0 0 0 0 0 0 0 0 0 0 0 0 0 0 0 0 0.25 0"/>
<feBlend mode="normal" in2="BackgroundImageFix" result="effect1_dropShadow_2588_488"/>
<feBlend mode="normal" in="SourceGraphic" in2="effect1_dropShadow_2588_488" result="shape"/>
</filter>
<filter id="filter1_d_2588_488" x="-23.5234" y="-22.3008" width="295.578" height="152.027" filterUnits="userSpaceOnUse" color-interpolation-filters="sRGB">
<feFlood flood-opacity="0" result="BackgroundImageFix"/>
<feColorMatrix in="SourceAlpha" type="matrix" values="0 0 0 0 0 0 0 0 0 0 0 0 0 0 0 0 0 0 127 0" result="hardAlpha"/>
<feOffset dy="4"/>
<feGaussianBlur stdDeviation="20.5"/>
<feComposite in2="hardAlpha" operator="out"/>
<feColorMatrix type="matrix" values="0 0 0 0 0 0 0 0 0 0 0 0 0 0 0 0 0 0 0.54 0"/>
<feBlend mode="normal" in2="BackgroundImageFix" result="effect1_dropShadow_2588_488"/>
<feBlend mode="normal" in="SourceGraphic" in2="effect1_dropShadow_2588_488" result="shape"/>
</filter>
<clipPath id="clip0_2588_488">
<rect width="244" height="99" fill="white"/>
</clipPath>
</defs>
</svg>
