<svg width="90" height="96" viewBox="0 0 90 96" fill="none" xmlns="http://www.w3.org/2000/svg">
<mask id="path-1-outside-1_2588_487" maskUnits="userSpaceOnUse" x="0" y="0" width="90" height="96" fill="black">
<rect fill="white" width="90" height="96"/>
<path d="M13.5616 66.9682V67.9896H4.02896V74.4584H13.173V75.4798H4.02896V83.197H2.82881V66.9682H13.5616Z"/>
<path d="M16.9906 75.0372C16.9906 79.8718 19.2881 82.2891 23.883 82.2891C28.394 82.2891 30.6496 79.8718 30.6496 75.0372C30.6496 70.2631 28.394 67.8761 23.883 67.8761C19.2881 67.8761 16.9906 70.2631 16.9906 75.0372ZM15.6762 75.1053C15.6762 69.6049 18.4118 66.8547 23.883 66.8547C29.2703 66.8547 31.964 69.6049 31.964 75.1053C31.964 80.5755 29.2703 83.3105 23.883 83.3105C18.4118 83.3105 15.6762 80.5755 15.6762 75.1053Z"/>
<path d="M35.0616 83.197V66.9682H41.8053C44.7619 66.9682 46.2402 68.2657 46.2402 70.8608C46.2402 73.1079 44.6361 74.7005 41.4281 75.6387L46.9488 83.197H45.3029L39.8736 75.6728V74.867C43.2264 74.3752 44.9028 73.0701 44.9028 70.9516C44.9028 68.9996 43.8056 68.0236 41.611 68.0236H36.2617V83.197H35.0616Z"/>
<path d="M59.9219 66.9682V67.9896H50.3893V74.4584H59.5333V75.4798H50.3893V82.1756H60.082V83.197H49.1891V66.9682H59.9219Z"/>
<path d="M63.3395 82.6296V81.3812C65.054 81.9865 66.9438 82.2891 69.0088 82.2891C72.4302 82.2891 74.1409 81.0029 74.1409 78.4305C74.1409 76.539 73.0284 75.5933 70.8034 75.5933H67.4429C64.4025 75.5933 62.8823 74.2315 62.8823 71.5077C62.8823 68.4057 65.1112 66.8547 69.5689 66.8547C71.3977 66.8547 73.1694 67.0817 74.8839 67.5356V68.6705C73.1694 68.1409 71.3977 67.8761 69.5689 67.8761C65.9113 67.8761 64.0825 69.0866 64.0825 71.5077C64.0825 73.4749 65.2026 74.4584 67.4429 74.4584H70.8034C73.8285 74.4584 75.3411 75.7825 75.3411 78.4305C75.3411 81.6839 73.2303 83.3105 69.0088 83.3105C66.9438 83.3105 65.054 83.0835 63.3395 82.6296Z"/>
<path d="M89 66.9682V67.9896H83.3993V83.197H82.1991V67.9896H76.7127V66.9682H89Z"/>
<path d="M49.9519 9.29253C48.9203 11.5838 45.9173 12.9055 43.4166 12.2678C40.792 11.5996 38.9559 9.02616 39.1377 6.2744C39.3013 3.79239 41.4851 1.26299 43.8233 1C42.2565 1.92553 41.2067 3.11856 40.9215 4.82176C40.6375 6.52271 41.1442 8.00243 42.2963 9.2914C44.0335 11.2328 47.3978 11.8468 49.9519 9.2914V9.29253Z"/>
<path d="M6.66619 53.0896C6.82298 52.909 6.96614 52.7442 7.16611 52.5128C8.3807 53.8029 9.56234 55.058 10.819 56.3933C10.819 55.4418 10.8065 53.2087 10.8065 53.2087C10.8065 53.2087 7.86259 50.2667 6.47985 48.7588C8.01371 47.0274 9.54416 45.3005 11.1178 43.525C12.7425 45.3208 14.3093 47.0522 15.9034 48.8152L11.4995 53.1867L11.5086 56.2567C12.8221 54.9914 14.0844 53.7736 15.3717 52.5331C15.4944 52.6991 15.616 52.8616 15.7432 53.0332C14.4275 54.4384 13.1277 55.8233 11.8347 57.215C11.7166 57.3425 11.5666 57.5118 11.5643 57.6642C11.5439 59.1484 11.5518 60.6315 11.5518 62.1654H19.5926C19.5926 61.9499 19.5926 61.732 19.5926 61.5153C19.5926 55.3458 19.596 49.1753 19.5835 43.0058C19.5835 42.7902 19.487 42.5273 19.3438 42.367C17.3316 40.1186 15.3058 37.8815 13.272 35.6524C13.0504 35.4097 13.0573 35.2483 13.2981 35.0519C13.4424 34.9345 13.5708 34.7968 13.7435 34.6332C15.6671 36.7472 17.5782 38.8466 19.5313 40.9922C19.5517 40.8658 19.5801 40.7721 19.5801 40.6796C19.5847 39.2687 19.6006 37.8578 19.5745 36.4481C19.5699 36.1998 19.4461 35.9029 19.2779 35.7156C17.1873 33.3882 15.0774 31.0766 12.9334 28.7177C15.3069 26.0562 17.6713 23.4049 20.0528 20.7344C22.4377 23.441 24.7657 26.0833 27.104 28.738C25.7803 30.2121 24.4851 31.6568 23.1864 33.097C22.4161 33.9514 21.6332 34.7946 20.8709 35.6557C20.7447 35.798 20.6277 36.0079 20.6254 36.1874C20.6095 37.71 20.6197 39.2337 20.6254 40.7575C20.6254 40.7857 20.6618 40.8139 20.7004 40.8715C22.7024 38.7213 24.6975 36.579 26.7154 34.4119C26.8461 34.5541 26.9529 34.6715 27.0835 34.8137C28.4788 33.2832 29.8479 31.7809 31.242 30.2515C33.1565 32.3859 37.7865 37.3398 37.7865 37.3398C36.014 39.1942 33.7462 41.6017 31.9998 43.4821C31.8942 43.5961 31.784 43.7632 31.7817 43.9076C31.7647 45.1436 31.7715 46.3784 31.7715 47.6425C37.8444 41.56 43.1607 34.8612 48.9155 28.4953C50.1539 29.9479 51.3549 31.3565 52.6569 32.8837C52.6569 31.9096 52.6558 31.089 52.6569 30.2696C52.6615 28.3508 52.6751 25.8564 52.6649 23.9376C52.6649 23.9376 55.7678 23.9376 57.1335 23.9376C57.1335 24.1803 57.1336 24.3724 57.1335 24.651C57.1323 29.8335 57.0879 33.6145 57.0697 37.9216C57.0697 37.9216 61.2 42.9708 63.0077 45.0973C63.1156 45.2237 63.2053 45.3648 63.3281 45.533C63.0326 45.7745 62.7622 45.9946 62.4339 46.2621C61.9658 45.726 61.5113 45.2068 60.9739 44.5905V62.1688H66.1958C66.1958 61.9623 66.1958 61.7467 66.1958 61.5311C66.214 52.2205 66.2367 33.1331 66.2367 33.1331L61.317 28.0416L61.9692 27.4942L66.1958 31.931C66.1958 31.1003 66.1751 28.4532 66.1751 28.4532L61.1625 23.125C62.9338 21.0944 64.7108 19.0583 66.5287 16.9747C68.3682 19.0639 70.1452 21.082 71.962 23.1453L67.0082 28.4532C67.0082 28.4532 67.0184 31.0879 67.0184 31.6884C68.5409 30.2572 69.9907 28.8937 71.4723 27.5009L72.192 28.2416L67.09 33.1331V33.8171C67.0968 42.4505 67.09 51.085 67.0877 59.7184C67.0877 60.5255 67.0877 61.3313 67.0877 62.179H72.3949C72.4051 61.9871 72.4221 61.8223 72.4221 61.6587C72.4346 58.5175 72.4517 54.9217 72.4437 51.7805C72.4437 51.7805 69.3578 48.6143 67.9137 47.0669C67.9137 47.0669 68.3091 46.7226 68.5273 46.533C69.7884 47.8852 71.0542 49.243 72.4346 50.7216C72.4346 49.5353 72.4199 47.454 72.4199 47.454C72.4199 47.454 69.056 43.799 67.5062 42.1534C69.2458 40.203 70.9724 38.2653 72.7289 36.2946C74.515 38.2856 76.227 40.1863 77.996 42.1582L73.2379 47.454C73.2379 47.454 73.222 49.6392 73.222 50.7058C74.6797 49.2046 76.0364 47.8062 77.4407 46.3592C77.6248 46.5872 77.7815 46.7802 77.9463 46.9845C76.4045 48.6098 74.7184 50.189 73.222 51.7805C73.2209 55.0718 73.2515 58.7523 73.2606 62.0435C73.2606 62.0774 73.2868 62.1101 73.3152 62.179H79.3597C79.3597 60.7207 79.3211 59.1293 79.3029 57.7049L76.9311 55.3245L77.3668 54.8718C77.3668 54.8718 78.6212 56.0976 79.3029 56.7624L79.3272 55.113C79.3272 55.113 77.2237 53.2871 76.4193 52.4508C77.4532 51.3153 78.4724 50.1956 79.5472 49.0139C80.6095 50.1843 81.6185 51.2961 82.649 52.4327L79.8755 55.113V56.8053L81.9389 54.8966L82.3091 55.3245L79.8755 57.7049V62.1722H88.1697V63.275H1V62.2196H10.8303C10.8303 60.6496 10.8371 59.1496 10.8178 57.6495C10.8167 57.5175 10.6554 57.3741 10.5474 57.2567C9.26807 55.8763 7.98303 54.5005 6.66619 53.0862V53.0896ZM43.8992 49.5793H51.3469V62.1733H59.7604C59.7763 62.0616 59.7956 61.9905 59.7945 61.9183C59.7922 55.786 59.7922 49.5022 59.7763 43.37C59.7763 43.37 53.9727 36.368 51.1856 33.0959C50.4198 32.1974 49.6563 31.2956 48.8734 30.3735C48.3746 30.9784 47.9315 31.5371 47.4645 32.0778C44.4468 35.5722 40.9894 39.7022 37.9876 43.2113C37.9546 49.2498 37.9546 55.742 37.9478 61.7806C37.9478 61.9092 37.966 62.039 37.9751 62.1609H43.8969V49.5805L43.8992 49.5793ZM25.235 37.535C23.7625 39.1378 22.3161 40.6976 20.8936 42.2812C20.7277 42.4652 20.6232 42.7722 20.6232 43.0228C20.6107 49.2091 20.6163 55.3955 20.6186 61.5819C20.6186 61.7806 20.6186 61.9792 20.6186 62.1779H30.7682C30.7966 62.1079 30.8216 62.074 30.8216 62.0413C30.8284 57.829 30.8364 53.6178 30.8318 49.4055C30.8318 49.2588 30.7409 49.0838 30.6387 48.971C29.5479 47.7712 28.4481 46.5804 27.3483 45.3885C26.6484 44.63 25.9474 43.8727 25.2259 43.0927C25.452 42.8783 25.6383 42.7022 25.8599 42.4911C27.5153 44.2327 29.1412 45.9416 30.8421 47.7305C30.8421 46.3761 30.8466 45.1368 30.8364 43.8986C30.8364 43.762 30.7943 43.5905 30.7069 43.4934C28.8901 41.5035 27.0631 39.5215 25.2361 37.535H25.235ZM36.7025 62.1824V44.9336C36.656 44.9178 36.6105 44.9032 36.5639 44.8885C36.1481 45.3761 35.7311 45.8637 35.3153 46.3513C35.2959 46.2836 34.9913 45.9238 34.972 45.8561C34.7057 46.0677 34.759 46.0677 34.6381 46.1628C33.7768 47.0308 32.9383 47.9224 32.1282 48.8389C31.9396 49.0511 31.7885 49.3818 31.7862 49.6584C31.7647 53.6054 31.7703 57.5525 31.7703 61.4995C31.7703 61.7185 31.7703 61.9386 31.7703 62.1835H36.7014L36.7025 62.1824ZM50.146 62.1937V50.7464H45.0865V54.2476H46.3295V55.2443H45.0979V62.1925H50.146V62.1937ZM19.5165 34.3329V22.9895C17.7622 24.9523 16.0966 26.8158 14.3866 28.7289C16.0716 30.5687 17.7588 32.4119 19.5165 34.3329ZM20.6732 23.1013V34.1964C22.3877 32.3272 24.0283 30.5371 25.6883 28.7278C24.034 26.8722 22.382 25.0189 20.6732 23.1024V23.1013ZM26.2598 37.2235C27.7709 38.8454 29.2719 40.4561 30.7841 42.0803V32.2493C29.2514 33.9345 27.7857 35.5451 26.2598 37.2235ZM36.3424 37.3409C34.8335 35.6783 33.3451 34.0406 31.7908 32.3272V42.0543C33.3201 40.4708 34.8301 38.9064 36.3424 37.3398V37.3409ZM53.892 25.1532C53.8897 27.9174 53.8318 31.1127 53.8409 33.8769V34.2189C54.4601 34.9887 55.2361 35.9289 55.928 36.7483V25.1532H53.892ZM66.1674 27.2097V18.7863C64.8358 20.2829 63.5678 21.7073 62.2884 23.1464C63.5735 24.4929 64.8278 25.8067 66.1674 27.2097ZM72.396 37.9549C71.0962 39.4075 69.8759 40.7721 68.6477 42.1446C69.8964 43.455 71.1019 44.7214 72.396 46.0793V37.9549ZM70.8099 23.1137L67.0752 19.0334V27.2097L70.8099 23.1137ZM73.2493 45.9562C74.4934 44.6469 75.6682 43.4122 76.8612 42.1582C75.658 40.8274 74.4673 39.5102 73.2493 38.1637V45.9562ZM10.7849 52.2758V45.0984C9.6521 46.3671 8.59317 47.5533 7.50697 48.7689C8.59885 49.9371 9.66346 51.076 10.7849 52.2758ZM11.5848 45.0984L11.5643 52.2758L14.9672 48.8897L11.5848 45.0984ZM81.9264 52.4801C81.2117 51.69 80.5663 50.9755 79.8755 50.2103V54.3108C80.5334 53.7239 81.2299 53.102 81.9264 52.4801ZM79.3074 54.3492V50.2803C78.603 51.0591 77.9645 51.7634 77.268 52.5331C77.9781 53.1652 78.6632 53.7758 79.3074 54.3492Z"/>
<path d="M19.2246 86.4638L15.4983 94.9035H14.2966L10.5582 86.4638H11.8691L14.9278 93.3965L18.0108 86.4638H19.2246Z"/>
<path d="M22.7357 86.4638H23.9495V94.9035H22.7357V86.4638Z"/>
<path d="M28.9209 86.4638H30.1346V93.8546H34.7349V94.9035H28.9209V86.4638Z"/>
<path d="M38.5553 86.4638H39.7691V93.8546H44.3694V94.9035H38.5553V86.4638Z"/>
<path d="M53.6389 92.7936H49.1236L48.189 94.9035H46.9388L50.7865 86.4638H51.9881L55.848 94.9035H54.5735L53.6389 92.7936ZM53.2141 91.8291L51.3812 87.6936L49.5484 91.8291H53.2141Z"/>
<path d="M65.3114 90.6355H66.4767V93.927C66.0559 94.2726 65.5663 94.5378 65.008 94.7227C64.4496 94.9076 63.867 95 63.2601 95C62.4024 95 61.6296 94.8151 60.9418 94.4454C60.2539 94.0676 59.7118 93.5532 59.3153 92.9021C58.9269 92.243 58.7327 91.5035 58.7327 90.6837C58.7327 89.8638 58.9269 89.1244 59.3153 88.4652C59.7118 87.8061 60.2539 87.2917 60.9418 86.922C61.6377 86.5522 62.4185 86.3674 63.2844 86.3674C63.9641 86.3674 64.5791 86.4799 65.1293 86.705C65.6877 86.922 66.1611 87.2435 66.5495 87.6695L65.7969 88.417C65.1172 87.766 64.2959 87.4404 63.3329 87.4404C62.6856 87.4404 62.103 87.5811 61.5851 87.8624C61.0753 88.1357 60.6747 88.5215 60.3834 89.0199C60.0921 89.5102 59.9464 90.0648 59.9464 90.6837C59.9464 91.2946 60.0921 91.8492 60.3834 92.3475C60.6747 92.8378 61.0753 93.2236 61.5851 93.505C62.103 93.7863 62.6815 93.927 63.3208 93.927C64.0814 93.927 64.745 93.7461 65.3114 93.3844V90.6355Z"/>
<path d="M77.3942 93.8546V94.9035H71.2282V86.4638H77.2243V87.5128H72.442V90.105H76.7024V91.1298H72.442V93.8546H77.3942Z"/>
</mask>
<path d="M13.5616 66.9682V67.9896H4.02896V74.4584H13.173V75.4798H4.02896V83.197H2.82881V66.9682H13.5616Z" fill="#1F2F15"/>
<path d="M16.9906 75.0372C16.9906 79.8718 19.2881 82.2891 23.883 82.2891C28.394 82.2891 30.6496 79.8718 30.6496 75.0372C30.6496 70.2631 28.394 67.8761 23.883 67.8761C19.2881 67.8761 16.9906 70.2631 16.9906 75.0372ZM15.6762 75.1053C15.6762 69.6049 18.4118 66.8547 23.883 66.8547C29.2703 66.8547 31.964 69.6049 31.964 75.1053C31.964 80.5755 29.2703 83.3105 23.883 83.3105C18.4118 83.3105 15.6762 80.5755 15.6762 75.1053Z" fill="#1F2F15"/>
<path d="M35.0616 83.197V66.9682H41.8053C44.7619 66.9682 46.2402 68.2657 46.2402 70.8608C46.2402 73.1079 44.6361 74.7005 41.4281 75.6387L46.9488 83.197H45.3029L39.8736 75.6728V74.867C43.2264 74.3752 44.9028 73.0701 44.9028 70.9516C44.9028 68.9996 43.8056 68.0236 41.611 68.0236H36.2617V83.197H35.0616Z" fill="#1F2F15"/>
<path d="M59.9219 66.9682V67.9896H50.3893V74.4584H59.5333V75.4798H50.3893V82.1756H60.082V83.197H49.1891V66.9682H59.9219Z" fill="#1F2F15"/>
<path d="M63.3395 82.6296V81.3812C65.054 81.9865 66.9438 82.2891 69.0088 82.2891C72.4302 82.2891 74.1409 81.0029 74.1409 78.4305C74.1409 76.539 73.0284 75.5933 70.8034 75.5933H67.4429C64.4025 75.5933 62.8823 74.2315 62.8823 71.5077C62.8823 68.4057 65.1112 66.8547 69.5689 66.8547C71.3977 66.8547 73.1694 67.0817 74.8839 67.5356V68.6705C73.1694 68.1409 71.3977 67.8761 69.5689 67.8761C65.9113 67.8761 64.0825 69.0866 64.0825 71.5077C64.0825 73.4749 65.2026 74.4584 67.4429 74.4584H70.8034C73.8285 74.4584 75.3411 75.7825 75.3411 78.4305C75.3411 81.6839 73.2303 83.3105 69.0088 83.3105C66.9438 83.3105 65.054 83.0835 63.3395 82.6296Z" fill="#1F2F15"/>
<path d="M89 66.9682V67.9896H83.3993V83.197H82.1991V67.9896H76.7127V66.9682H89Z" fill="#1F2F15"/>
<path d="M49.9519 9.29253C48.9203 11.5838 45.9173 12.9055 43.4166 12.2678C40.792 11.5996 38.9559 9.02616 39.1377 6.2744C39.3013 3.79239 41.4851 1.26299 43.8233 1C42.2565 1.92553 41.2067 3.11856 40.9215 4.82176C40.6375 6.52271 41.1442 8.00243 42.2963 9.2914C44.0335 11.2328 47.3978 11.8468 49.9519 9.2914V9.29253Z" fill="#1F2F15"/>
<path d="M6.66619 53.0896C6.82298 52.909 6.96614 52.7442 7.16611 52.5128C8.3807 53.8029 9.56234 55.058 10.819 56.3933C10.819 55.4418 10.8065 53.2087 10.8065 53.2087C10.8065 53.2087 7.86259 50.2667 6.47985 48.7588C8.01371 47.0274 9.54416 45.3005 11.1178 43.525C12.7425 45.3208 14.3093 47.0522 15.9034 48.8152L11.4995 53.1867L11.5086 56.2567C12.8221 54.9914 14.0844 53.7736 15.3717 52.5331C15.4944 52.6991 15.616 52.8616 15.7432 53.0332C14.4275 54.4384 13.1277 55.8233 11.8347 57.215C11.7166 57.3425 11.5666 57.5118 11.5643 57.6642C11.5439 59.1484 11.5518 60.6315 11.5518 62.1654H19.5926C19.5926 61.9499 19.5926 61.732 19.5926 61.5153C19.5926 55.3458 19.596 49.1753 19.5835 43.0058C19.5835 42.7902 19.487 42.5273 19.3438 42.367C17.3316 40.1186 15.3058 37.8815 13.272 35.6524C13.0504 35.4097 13.0573 35.2483 13.2981 35.0519C13.4424 34.9345 13.5708 34.7968 13.7435 34.6332C15.6671 36.7472 17.5782 38.8466 19.5313 40.9922C19.5517 40.8658 19.5801 40.7721 19.5801 40.6796C19.5847 39.2687 19.6006 37.8578 19.5745 36.4481C19.5699 36.1998 19.4461 35.9029 19.2779 35.7156C17.1873 33.3882 15.0774 31.0766 12.9334 28.7177C15.3069 26.0562 17.6713 23.4049 20.0528 20.7344C22.4377 23.441 24.7657 26.0833 27.104 28.738C25.7803 30.2121 24.4851 31.6568 23.1864 33.097C22.4161 33.9514 21.6332 34.7946 20.8709 35.6557C20.7447 35.798 20.6277 36.0079 20.6254 36.1874C20.6095 37.71 20.6197 39.2337 20.6254 40.7575C20.6254 40.7857 20.6618 40.8139 20.7004 40.8715C22.7024 38.7213 24.6975 36.579 26.7154 34.4119C26.8461 34.5541 26.9529 34.6715 27.0835 34.8137C28.4788 33.2832 29.8479 31.7809 31.242 30.2515C33.1565 32.3859 37.7865 37.3398 37.7865 37.3398C36.014 39.1942 33.7462 41.6017 31.9998 43.4821C31.8942 43.5961 31.784 43.7632 31.7817 43.9076C31.7647 45.1436 31.7715 46.3784 31.7715 47.6425C37.8444 41.56 43.1607 34.8612 48.9155 28.4953C50.1539 29.9479 51.3549 31.3565 52.6569 32.8837C52.6569 31.9096 52.6558 31.089 52.6569 30.2696C52.6615 28.3508 52.6751 25.8564 52.6649 23.9376C52.6649 23.9376 55.7678 23.9376 57.1335 23.9376C57.1335 24.1803 57.1336 24.3724 57.1335 24.651C57.1323 29.8335 57.0879 33.6145 57.0697 37.9216C57.0697 37.9216 61.2 42.9708 63.0077 45.0973C63.1156 45.2237 63.2053 45.3648 63.3281 45.533C63.0326 45.7745 62.7622 45.9946 62.4339 46.2621C61.9658 45.726 61.5113 45.2068 60.9739 44.5905V62.1688H66.1958C66.1958 61.9623 66.1958 61.7467 66.1958 61.5311C66.214 52.2205 66.2367 33.1331 66.2367 33.1331L61.317 28.0416L61.9692 27.4942L66.1958 31.931C66.1958 31.1003 66.1751 28.4532 66.1751 28.4532L61.1625 23.125C62.9338 21.0944 64.7108 19.0583 66.5287 16.9747C68.3682 19.0639 70.1452 21.082 71.962 23.1453L67.0082 28.4532C67.0082 28.4532 67.0184 31.0879 67.0184 31.6884C68.5409 30.2572 69.9907 28.8937 71.4723 27.5009L72.192 28.2416L67.09 33.1331V33.8171C67.0968 42.4505 67.09 51.085 67.0877 59.7184C67.0877 60.5255 67.0877 61.3313 67.0877 62.179H72.3949C72.4051 61.9871 72.4221 61.8223 72.4221 61.6587C72.4346 58.5175 72.4517 54.9217 72.4437 51.7805C72.4437 51.7805 69.3578 48.6143 67.9137 47.0669C67.9137 47.0669 68.3091 46.7226 68.5273 46.533C69.7884 47.8852 71.0542 49.243 72.4346 50.7216C72.4346 49.5353 72.4199 47.454 72.4199 47.454C72.4199 47.454 69.056 43.799 67.5062 42.1534C69.2458 40.203 70.9724 38.2653 72.7289 36.2946C74.515 38.2856 76.227 40.1863 77.996 42.1582L73.2379 47.454C73.2379 47.454 73.222 49.6392 73.222 50.7058C74.6797 49.2046 76.0364 47.8062 77.4407 46.3592C77.6248 46.5872 77.7815 46.7802 77.9463 46.9845C76.4045 48.6098 74.7184 50.189 73.222 51.7805C73.2209 55.0718 73.2515 58.7523 73.2606 62.0435C73.2606 62.0774 73.2868 62.1101 73.3152 62.179H79.3597C79.3597 60.7207 79.3211 59.1293 79.3029 57.7049L76.9311 55.3245L77.3668 54.8718C77.3668 54.8718 78.6212 56.0976 79.3029 56.7624L79.3272 55.113C79.3272 55.113 77.2237 53.2871 76.4193 52.4508C77.4532 51.3153 78.4724 50.1956 79.5472 49.0139C80.6095 50.1843 81.6185 51.2961 82.649 52.4327L79.8755 55.113V56.8053L81.9389 54.8966L82.3091 55.3245L79.8755 57.7049V62.1722H88.1697V63.275H1V62.2196H10.8303C10.8303 60.6496 10.8371 59.1496 10.8178 57.6495C10.8167 57.5175 10.6554 57.3741 10.5474 57.2567C9.26807 55.8763 7.98303 54.5005 6.66619 53.0862V53.0896ZM43.8992 49.5793H51.3469V62.1733H59.7604C59.7763 62.0616 59.7956 61.9905 59.7945 61.9183C59.7922 55.786 59.7922 49.5022 59.7763 43.37C59.7763 43.37 53.9727 36.368 51.1856 33.0959C50.4198 32.1974 49.6563 31.2956 48.8734 30.3735C48.3746 30.9784 47.9315 31.5371 47.4645 32.0778C44.4468 35.5722 40.9894 39.7022 37.9876 43.2113C37.9546 49.2498 37.9546 55.742 37.9478 61.7806C37.9478 61.9092 37.966 62.039 37.9751 62.1609H43.8969V49.5805L43.8992 49.5793ZM25.235 37.535C23.7625 39.1378 22.3161 40.6976 20.8936 42.2812C20.7277 42.4652 20.6232 42.7722 20.6232 43.0228C20.6107 49.2091 20.6163 55.3955 20.6186 61.5819C20.6186 61.7806 20.6186 61.9792 20.6186 62.1779H30.7682C30.7966 62.1079 30.8216 62.074 30.8216 62.0413C30.8284 57.829 30.8364 53.6178 30.8318 49.4055C30.8318 49.2588 30.7409 49.0838 30.6387 48.971C29.5479 47.7712 28.4481 46.5804 27.3483 45.3885C26.6484 44.63 25.9474 43.8727 25.2259 43.0927C25.452 42.8783 25.6383 42.7022 25.8599 42.4911C27.5153 44.2327 29.1412 45.9416 30.8421 47.7305C30.8421 46.3761 30.8466 45.1368 30.8364 43.8986C30.8364 43.762 30.7943 43.5905 30.7069 43.4934C28.8901 41.5035 27.0631 39.5215 25.2361 37.535H25.235ZM36.7025 62.1824V44.9336C36.656 44.9178 36.6105 44.9032 36.5639 44.8885C36.1481 45.3761 35.7311 45.8637 35.3153 46.3513C35.2959 46.2836 34.9913 45.9238 34.972 45.8561C34.7057 46.0677 34.759 46.0677 34.6381 46.1628C33.7768 47.0308 32.9383 47.9224 32.1282 48.8389C31.9396 49.0511 31.7885 49.3818 31.7862 49.6584C31.7647 53.6054 31.7703 57.5525 31.7703 61.4995C31.7703 61.7185 31.7703 61.9386 31.7703 62.1835H36.7014L36.7025 62.1824ZM50.146 62.1937V50.7464H45.0865V54.2476H46.3295V55.2443H45.0979V62.1925H50.146V62.1937ZM19.5165 34.3329V22.9895C17.7622 24.9523 16.0966 26.8158 14.3866 28.7289C16.0716 30.5687 17.7588 32.4119 19.5165 34.3329ZM20.6732 23.1013V34.1964C22.3877 32.3272 24.0283 30.5371 25.6883 28.7278C24.034 26.8722 22.382 25.0189 20.6732 23.1024V23.1013ZM26.2598 37.2235C27.7709 38.8454 29.2719 40.4561 30.7841 42.0803V32.2493C29.2514 33.9345 27.7857 35.5451 26.2598 37.2235ZM36.3424 37.3409C34.8335 35.6783 33.3451 34.0406 31.7908 32.3272V42.0543C33.3201 40.4708 34.8301 38.9064 36.3424 37.3398V37.3409ZM53.892 25.1532C53.8897 27.9174 53.8318 31.1127 53.8409 33.8769V34.2189C54.4601 34.9887 55.2361 35.9289 55.928 36.7483V25.1532H53.892ZM66.1674 27.2097V18.7863C64.8358 20.2829 63.5678 21.7073 62.2884 23.1464C63.5735 24.4929 64.8278 25.8067 66.1674 27.2097ZM72.396 37.9549C71.0962 39.4075 69.8759 40.7721 68.6477 42.1446C69.8964 43.455 71.1019 44.7214 72.396 46.0793V37.9549ZM70.8099 23.1137L67.0752 19.0334V27.2097L70.8099 23.1137ZM73.2493 45.9562C74.4934 44.6469 75.6682 43.4122 76.8612 42.1582C75.658 40.8274 74.4673 39.5102 73.2493 38.1637V45.9562ZM10.7849 52.2758V45.0984C9.6521 46.3671 8.59317 47.5533 7.50697 48.7689C8.59885 49.9371 9.66346 51.076 10.7849 52.2758ZM11.5848 45.0984L11.5643 52.2758L14.9672 48.8897L11.5848 45.0984ZM81.9264 52.4801C81.2117 51.69 80.5663 50.9755 79.8755 50.2103V54.3108C80.5334 53.7239 81.2299 53.102 81.9264 52.4801ZM79.3074 54.3492V50.2803C78.603 51.0591 77.9645 51.7634 77.268 52.5331C77.9781 53.1652 78.6632 53.7758 79.3074 54.3492Z" fill="#1F2F15"/>
<path d="M19.2246 86.4638L15.4983 94.9035H14.2966L10.5582 86.4638H11.8691L14.9278 93.3965L18.0108 86.4638H19.2246Z" fill="#1F2F15"/>
<path d="M22.7357 86.4638H23.9495V94.9035H22.7357V86.4638Z" fill="#1F2F15"/>
<path d="M28.9209 86.4638H30.1346V93.8546H34.7349V94.9035H28.9209V86.4638Z" fill="#1F2F15"/>
<path d="M38.5553 86.4638H39.7691V93.8546H44.3694V94.9035H38.5553V86.4638Z" fill="#1F2F15"/>
<path d="M53.6389 92.7936H49.1236L48.189 94.9035H46.9388L50.7865 86.4638H51.9881L55.848 94.9035H54.5735L53.6389 92.7936ZM53.2141 91.8291L51.3812 87.6936L49.5484 91.8291H53.2141Z" fill="#1F2F15"/>
<path d="M65.3114 90.6355H66.4767V93.927C66.0559 94.2726 65.5663 94.5378 65.008 94.7227C64.4496 94.9076 63.867 95 63.2601 95C62.4024 95 61.6296 94.8151 60.9418 94.4454C60.2539 94.0676 59.7118 93.5532 59.3153 92.9021C58.9269 92.243 58.7327 91.5035 58.7327 90.6837C58.7327 89.8638 58.9269 89.1244 59.3153 88.4652C59.7118 87.8061 60.2539 87.2917 60.9418 86.922C61.6377 86.5522 62.4185 86.3674 63.2844 86.3674C63.9641 86.3674 64.5791 86.4799 65.1293 86.705C65.6877 86.922 66.1611 87.2435 66.5495 87.6695L65.7969 88.417C65.1172 87.766 64.2959 87.4404 63.3329 87.4404C62.6856 87.4404 62.103 87.5811 61.5851 87.8624C61.0753 88.1357 60.6747 88.5215 60.3834 89.0199C60.0921 89.5102 59.9464 90.0648 59.9464 90.6837C59.9464 91.2946 60.0921 91.8492 60.3834 92.3475C60.6747 92.8378 61.0753 93.2236 61.5851 93.505C62.103 93.7863 62.6815 93.927 63.3208 93.927C64.0814 93.927 64.745 93.7461 65.3114 93.3844V90.6355Z" fill="#1F2F15"/>
<path d="M77.3942 93.8546V94.9035H71.2282V86.4638H77.2243V87.5128H72.442V90.105H76.7024V91.1298H72.442V93.8546H77.3942Z" fill="#1F2F15"/>
<path d="M13.5616 66.9682V67.9896H4.02896V74.4584H13.173V75.4798H4.02896V83.197H2.82881V66.9682H13.5616Z" stroke="#1F2F15" stroke-width="0.8" mask="url(#path-1-outside-1_2588_487)"/>
<path d="M16.9906 75.0372C16.9906 79.8718 19.2881 82.2891 23.883 82.2891C28.394 82.2891 30.6496 79.8718 30.6496 75.0372C30.6496 70.2631 28.394 67.8761 23.883 67.8761C19.2881 67.8761 16.9906 70.2631 16.9906 75.0372ZM15.6762 75.1053C15.6762 69.6049 18.4118 66.8547 23.883 66.8547C29.2703 66.8547 31.964 69.6049 31.964 75.1053C31.964 80.5755 29.2703 83.3105 23.883 83.3105C18.4118 83.3105 15.6762 80.5755 15.6762 75.1053Z" stroke="#1F2F15" stroke-width="0.8" mask="url(#path-1-outside-1_2588_487)"/>
<path d="M35.0616 83.197V66.9682H41.8053C44.7619 66.9682 46.2402 68.2657 46.2402 70.8608C46.2402 73.1079 44.6361 74.7005 41.4281 75.6387L46.9488 83.197H45.3029L39.8736 75.6728V74.867C43.2264 74.3752 44.9028 73.0701 44.9028 70.9516C44.9028 68.9996 43.8056 68.0236 41.611 68.0236H36.2617V83.197H35.0616Z" stroke="#1F2F15" stroke-width="0.8" mask="url(#path-1-outside-1_2588_487)"/>
<path d="M59.9219 66.9682V67.9896H50.3893V74.4584H59.5333V75.4798H50.3893V82.1756H60.082V83.197H49.1891V66.9682H59.9219Z" stroke="#1F2F15" stroke-width="0.8" mask="url(#path-1-outside-1_2588_487)"/>
<path d="M63.3395 82.6296V81.3812C65.054 81.9865 66.9438 82.2891 69.0088 82.2891C72.4302 82.2891 74.1409 81.0029 74.1409 78.4305C74.1409 76.539 73.0284 75.5933 70.8034 75.5933H67.4429C64.4025 75.5933 62.8823 74.2315 62.8823 71.5077C62.8823 68.4057 65.1112 66.8547 69.5689 66.8547C71.3977 66.8547 73.1694 67.0817 74.8839 67.5356V68.6705C73.1694 68.1409 71.3977 67.8761 69.5689 67.8761C65.9113 67.8761 64.0825 69.0866 64.0825 71.5077C64.0825 73.4749 65.2026 74.4584 67.4429 74.4584H70.8034C73.8285 74.4584 75.3411 75.7825 75.3411 78.4305C75.3411 81.6839 73.2303 83.3105 69.0088 83.3105C66.9438 83.3105 65.054 83.0835 63.3395 82.6296Z" stroke="#1F2F15" stroke-width="0.8" mask="url(#path-1-outside-1_2588_487)"/>
<path d="M89 66.9682V67.9896H83.3993V83.197H82.1991V67.9896H76.7127V66.9682H89Z" stroke="#1F2F15" stroke-width="0.8" mask="url(#path-1-outside-1_2588_487)"/>
<path d="M49.9519 9.29253C48.9203 11.5838 45.9173 12.9055 43.4166 12.2678C40.792 11.5996 38.9559 9.02616 39.1377 6.2744C39.3013 3.79239 41.4851 1.26299 43.8233 1C42.2565 1.92553 41.2067 3.11856 40.9215 4.82176C40.6375 6.52271 41.1442 8.00243 42.2963 9.2914C44.0335 11.2328 47.3978 11.8468 49.9519 9.2914V9.29253Z" stroke="#1F2F15" stroke-width="0.8" mask="url(#path-1-outside-1_2588_487)"/>
<path d="M6.66619 53.0896C6.82298 52.909 6.96614 52.7442 7.16611 52.5128C8.3807 53.8029 9.56234 55.058 10.819 56.3933C10.819 55.4418 10.8065 53.2087 10.8065 53.2087C10.8065 53.2087 7.86259 50.2667 6.47985 48.7588C8.01371 47.0274 9.54416 45.3005 11.1178 43.525C12.7425 45.3208 14.3093 47.0522 15.9034 48.8152L11.4995 53.1867L11.5086 56.2567C12.8221 54.9914 14.0844 53.7736 15.3717 52.5331C15.4944 52.6991 15.616 52.8616 15.7432 53.0332C14.4275 54.4384 13.1277 55.8233 11.8347 57.215C11.7166 57.3425 11.5666 57.5118 11.5643 57.6642C11.5439 59.1484 11.5518 60.6315 11.5518 62.1654H19.5926C19.5926 61.9499 19.5926 61.732 19.5926 61.5153C19.5926 55.3458 19.596 49.1753 19.5835 43.0058C19.5835 42.7902 19.487 42.5273 19.3438 42.367C17.3316 40.1186 15.3058 37.8815 13.272 35.6524C13.0504 35.4097 13.0573 35.2483 13.2981 35.0519C13.4424 34.9345 13.5708 34.7968 13.7435 34.6332C15.6671 36.7472 17.5782 38.8466 19.5313 40.9922C19.5517 40.8658 19.5801 40.7721 19.5801 40.6796C19.5847 39.2687 19.6006 37.8578 19.5745 36.4481C19.5699 36.1998 19.4461 35.9029 19.2779 35.7156C17.1873 33.3882 15.0774 31.0766 12.9334 28.7177C15.3069 26.0562 17.6713 23.4049 20.0528 20.7344C22.4377 23.441 24.7657 26.0833 27.104 28.738C25.7803 30.2121 24.4851 31.6568 23.1864 33.097C22.4161 33.9514 21.6332 34.7946 20.8709 35.6557C20.7447 35.798 20.6277 36.0079 20.6254 36.1874C20.6095 37.71 20.6197 39.2337 20.6254 40.7575C20.6254 40.7857 20.6618 40.8139 20.7004 40.8715C22.7024 38.7213 24.6975 36.579 26.7154 34.4119C26.8461 34.5541 26.9529 34.6715 27.0835 34.8137C28.4788 33.2832 29.8479 31.7809 31.242 30.2515C33.1565 32.3859 37.7865 37.3398 37.7865 37.3398C36.014 39.1942 33.7462 41.6017 31.9998 43.4821C31.8942 43.5961 31.784 43.7632 31.7817 43.9076C31.7647 45.1436 31.7715 46.3784 31.7715 47.6425C37.8444 41.56 43.1607 34.8612 48.9155 28.4953C50.1539 29.9479 51.3549 31.3565 52.6569 32.8837C52.6569 31.9096 52.6558 31.089 52.6569 30.2696C52.6615 28.3508 52.6751 25.8564 52.6649 23.9376C52.6649 23.9376 55.7678 23.9376 57.1335 23.9376C57.1335 24.1803 57.1336 24.3724 57.1335 24.651C57.1323 29.8335 57.0879 33.6145 57.0697 37.9216C57.0697 37.9216 61.2 42.9708 63.0077 45.0973C63.1156 45.2237 63.2053 45.3648 63.3281 45.533C63.0326 45.7745 62.7622 45.9946 62.4339 46.2621C61.9658 45.726 61.5113 45.2068 60.9739 44.5905V62.1688H66.1958C66.1958 61.9623 66.1958 61.7467 66.1958 61.5311C66.214 52.2205 66.2367 33.1331 66.2367 33.1331L61.317 28.0416L61.9692 27.4942L66.1958 31.931C66.1958 31.1003 66.1751 28.4532 66.1751 28.4532L61.1625 23.125C62.9338 21.0944 64.7108 19.0583 66.5287 16.9747C68.3682 19.0639 70.1452 21.082 71.962 23.1453L67.0082 28.4532C67.0082 28.4532 67.0184 31.0879 67.0184 31.6884C68.5409 30.2572 69.9907 28.8937 71.4723 27.5009L72.192 28.2416L67.09 33.1331V33.8171C67.0968 42.4505 67.09 51.085 67.0877 59.7184C67.0877 60.5255 67.0877 61.3313 67.0877 62.179H72.3949C72.4051 61.9871 72.4221 61.8223 72.4221 61.6587C72.4346 58.5175 72.4517 54.9217 72.4437 51.7805C72.4437 51.7805 69.3578 48.6143 67.9137 47.0669C67.9137 47.0669 68.3091 46.7226 68.5273 46.533C69.7884 47.8852 71.0542 49.243 72.4346 50.7216C72.4346 49.5353 72.4199 47.454 72.4199 47.454C72.4199 47.454 69.056 43.799 67.5062 42.1534C69.2458 40.203 70.9724 38.2653 72.7289 36.2946C74.515 38.2856 76.227 40.1863 77.996 42.1582L73.2379 47.454C73.2379 47.454 73.222 49.6392 73.222 50.7058C74.6797 49.2046 76.0364 47.8062 77.4407 46.3592C77.6248 46.5872 77.7815 46.7802 77.9463 46.9845C76.4045 48.6098 74.7184 50.189 73.222 51.7805C73.2209 55.0718 73.2515 58.7523 73.2606 62.0435C73.2606 62.0774 73.2868 62.1101 73.3152 62.179H79.3597C79.3597 60.7207 79.3211 59.1293 79.3029 57.7049L76.9311 55.3245L77.3668 54.8718C77.3668 54.8718 78.6212 56.0976 79.3029 56.7624L79.3272 55.113C79.3272 55.113 77.2237 53.2871 76.4193 52.4508C77.4532 51.3153 78.4724 50.1956 79.5472 49.0139C80.6095 50.1843 81.6185 51.2961 82.649 52.4327L79.8755 55.113V56.8053L81.9389 54.8966L82.3091 55.3245L79.8755 57.7049V62.1722H88.1697V63.275H1V62.2196H10.8303C10.8303 60.6496 10.8371 59.1496 10.8178 57.6495C10.8167 57.5175 10.6554 57.3741 10.5474 57.2567C9.26807 55.8763 7.98303 54.5005 6.66619 53.0862V53.0896ZM43.8992 49.5793H51.3469V62.1733H59.7604C59.7763 62.0616 59.7956 61.9905 59.7945 61.9183C59.7922 55.786 59.7922 49.5022 59.7763 43.37C59.7763 43.37 53.9727 36.368 51.1856 33.0959C50.4198 32.1974 49.6563 31.2956 48.8734 30.3735C48.3746 30.9784 47.9315 31.5371 47.4645 32.0778C44.4468 35.5722 40.9894 39.7022 37.9876 43.2113C37.9546 49.2498 37.9546 55.742 37.9478 61.7806C37.9478 61.9092 37.966 62.039 37.9751 62.1609H43.8969V49.5805L43.8992 49.5793ZM25.235 37.535C23.7625 39.1378 22.3161 40.6976 20.8936 42.2812C20.7277 42.4652 20.6232 42.7722 20.6232 43.0228C20.6107 49.2091 20.6163 55.3955 20.6186 61.5819C20.6186 61.7806 20.6186 61.9792 20.6186 62.1779H30.7682C30.7966 62.1079 30.8216 62.074 30.8216 62.0413C30.8284 57.829 30.8364 53.6178 30.8318 49.4055C30.8318 49.2588 30.7409 49.0838 30.6387 48.971C29.5479 47.7712 28.4481 46.5804 27.3483 45.3885C26.6484 44.63 25.9474 43.8727 25.2259 43.0927C25.452 42.8783 25.6383 42.7022 25.8599 42.4911C27.5153 44.2327 29.1412 45.9416 30.8421 47.7305C30.8421 46.3761 30.8466 45.1368 30.8364 43.8986C30.8364 43.762 30.7943 43.5905 30.7069 43.4934C28.8901 41.5035 27.0631 39.5215 25.2361 37.535H25.235ZM36.7025 62.1824V44.9336C36.656 44.9178 36.6105 44.9032 36.5639 44.8885C36.1481 45.3761 35.7311 45.8637 35.3153 46.3513C35.2959 46.2836 34.9913 45.9238 34.972 45.8561C34.7057 46.0677 34.759 46.0677 34.6381 46.1628C33.7768 47.0308 32.9383 47.9224 32.1282 48.8389C31.9396 49.0511 31.7885 49.3818 31.7862 49.6584C31.7647 53.6054 31.7703 57.5525 31.7703 61.4995C31.7703 61.7185 31.7703 61.9386 31.7703 62.1835H36.7014L36.7025 62.1824ZM50.146 62.1937V50.7464H45.0865V54.2476H46.3295V55.2443H45.0979V62.1925H50.146V62.1937ZM19.5165 34.3329V22.9895C17.7622 24.9523 16.0966 26.8158 14.3866 28.7289C16.0716 30.5687 17.7588 32.4119 19.5165 34.3329ZM20.6732 23.1013V34.1964C22.3877 32.3272 24.0283 30.5371 25.6883 28.7278C24.034 26.8722 22.382 25.0189 20.6732 23.1024V23.1013ZM26.2598 37.2235C27.7709 38.8454 29.2719 40.4561 30.7841 42.0803V32.2493C29.2514 33.9345 27.7857 35.5451 26.2598 37.2235ZM36.3424 37.3409C34.8335 35.6783 33.3451 34.0406 31.7908 32.3272V42.0543C33.3201 40.4708 34.8301 38.9064 36.3424 37.3398V37.3409ZM53.892 25.1532C53.8897 27.9174 53.8318 31.1127 53.8409 33.8769V34.2189C54.4601 34.9887 55.2361 35.9289 55.928 36.7483V25.1532H53.892ZM66.1674 27.2097V18.7863C64.8358 20.2829 63.5678 21.7073 62.2884 23.1464C63.5735 24.4929 64.8278 25.8067 66.1674 27.2097ZM72.396 37.9549C71.0962 39.4075 69.8759 40.7721 68.6477 42.1446C69.8964 43.455 71.1019 44.7214 72.396 46.0793V37.9549ZM70.8099 23.1137L67.0752 19.0334V27.2097L70.8099 23.1137ZM73.2493 45.9562C74.4934 44.6469 75.6682 43.4122 76.8612 42.1582C75.658 40.8274 74.4673 39.5102 73.2493 38.1637V45.9562ZM10.7849 52.2758V45.0984C9.6521 46.3671 8.59317 47.5533 7.50697 48.7689C8.59885 49.9371 9.66346 51.076 10.7849 52.2758ZM11.5848 45.0984L11.5643 52.2758L14.9672 48.8897L11.5848 45.0984ZM81.9264 52.4801C81.2117 51.69 80.5663 50.9755 79.8755 50.2103V54.3108C80.5334 53.7239 81.2299 53.102 81.9264 52.4801ZM79.3074 54.3492V50.2803C78.603 51.0591 77.9645 51.7634 77.268 52.5331C77.9781 53.1652 78.6632 53.7758 79.3074 54.3492Z" stroke="#1F2F15" stroke-width="0.8" mask="url(#path-1-outside-1_2588_487)"/>
<path d="M19.2246 86.4638L15.4983 94.9035H14.2966L10.5582 86.4638H11.8691L14.9278 93.3965L18.0108 86.4638H19.2246Z" stroke="#1F2F15" stroke-width="0.8" mask="url(#path-1-outside-1_2588_487)"/>
<path d="M22.7357 86.4638H23.9495V94.9035H22.7357V86.4638Z" stroke="#1F2F15" stroke-width="0.8" mask="url(#path-1-outside-1_2588_487)"/>
<path d="M28.9209 86.4638H30.1346V93.8546H34.7349V94.9035H28.9209V86.4638Z" stroke="#1F2F15" stroke-width="0.8" mask="url(#path-1-outside-1_2588_487)"/>
<path d="M38.5553 86.4638H39.7691V93.8546H44.3694V94.9035H38.5553V86.4638Z" stroke="#1F2F15" stroke-width="0.8" mask="url(#path-1-outside-1_2588_487)"/>
<path d="M53.6389 92.7936H49.1236L48.189 94.9035H46.9388L50.7865 86.4638H51.9881L55.848 94.9035H54.5735L53.6389 92.7936ZM53.2141 91.8291L51.3812 87.6936L49.5484 91.8291H53.2141Z" stroke="#1F2F15" stroke-width="0.8" mask="url(#path-1-outside-1_2588_487)"/>
<path d="M65.3114 90.6355H66.4767V93.927C66.0559 94.2726 65.5663 94.5378 65.008 94.7227C64.4496 94.9076 63.867 95 63.2601 95C62.4024 95 61.6296 94.8151 60.9418 94.4454C60.2539 94.0676 59.7118 93.5532 59.3153 92.9021C58.9269 92.243 58.7327 91.5035 58.7327 90.6837C58.7327 89.8638 58.9269 89.1244 59.3153 88.4652C59.7118 87.8061 60.2539 87.2917 60.9418 86.922C61.6377 86.5522 62.4185 86.3674 63.2844 86.3674C63.9641 86.3674 64.5791 86.4799 65.1293 86.705C65.6877 86.922 66.1611 87.2435 66.5495 87.6695L65.7969 88.417C65.1172 87.766 64.2959 87.4404 63.3329 87.4404C62.6856 87.4404 62.103 87.5811 61.5851 87.8624C61.0753 88.1357 60.6747 88.5215 60.3834 89.0199C60.0921 89.5102 59.9464 90.0648 59.9464 90.6837C59.9464 91.2946 60.0921 91.8492 60.3834 92.3475C60.6747 92.8378 61.0753 93.2236 61.5851 93.505C62.103 93.7863 62.6815 93.927 63.3208 93.927C64.0814 93.927 64.745 93.7461 65.3114 93.3844V90.6355Z" stroke="#1F2F15" stroke-width="0.8" mask="url(#path-1-outside-1_2588_487)"/>
<path d="M77.3942 93.8546V94.9035H71.2282V86.4638H77.2243V87.5128H72.442V90.105H76.7024V91.1298H72.442V93.8546H77.3942Z" stroke="#1F2F15" stroke-width="0.8" mask="url(#path-1-outside-1_2588_487)"/>
</svg>
